# Blender v2.76 (sub 0) OBJ File: ''
# www.blender.org
mtllib testobj.mtl
o Mesh_Untitled
v -0.375000 -0.375000 -0.388750
v 0.375000 -0.375000 -0.388750
v 0.289093 -0.289093 0.448125
v -0.289093 -0.289093 0.448125
v -0.375000 0.375000 -0.388750
v 0.375000 0.375000 -0.388750
v 0.289093 0.289093 0.448125
v -0.289093 0.289093 0.448125
v 0.181579 -0.181579 0.667778
v -0.181579 -0.181579 0.667778
v 0.181579 0.181579 0.667778
v -0.181579 0.181579 0.667778
v -0.277778 -0.277778 -0.585556
v 0.277778 -0.277778 -0.585556
v -0.277778 0.277778 -0.585555
v 0.277778 0.277778 -0.585555
v 0.000000 -0.500000 -0.388750
v 0.000000 -0.385458 0.448125
v 0.385458 -0.000000 0.448125
v 0.500000 0.000000 -0.388750
v -0.500000 0.000000 -0.388750
v -0.385458 -0.000000 0.448125
v 0.000000 0.385458 0.448125
v 0.000000 0.500000 -0.388750
v -0.250943 -0.250943 0.567500
v -0.234938 -0.000000 0.681875
v -0.250943 0.250943 0.567500
v -0.334591 -0.000000 0.567500
v 0.250943 -0.250943 0.567500
v 0.000000 -0.234938 0.681875
v 0.000000 -0.334591 0.567500
v 0.250943 0.250943 0.567500
v 0.234938 -0.000000 0.681875
v 0.334591 -0.000000 0.567500
v 0.000000 0.234938 0.681875
v 0.000000 0.334591 0.567500
v 0.000000 -0.000000 0.700000
v 0.375000 0.375000 -0.490000
v 0.000000 0.375000 -0.596250
v -0.375000 0.375000 -0.490000
v 0.000000 0.500000 -0.490000
v 0.375000 -0.375000 -0.490000
v 0.375000 0.000000 -0.596250
v 0.500000 0.000000 -0.490000
v -0.375000 -0.375000 -0.490000
v 0.000000 -0.375000 -0.596250
v 0.000000 -0.500000 -0.490000
v -0.375000 0.000000 -0.596250
v -0.500000 0.000000 -0.490000
v 0.000000 0.000000 -0.610000
vt 0.223417 0.500000
vt 0.268667 0.500000
vt 0.295250 0.611000
vt 0.250000 0.333333
vt 0.295250 0.389000
vt 0.314617 0.430469
vt 0.304583 0.500000
vt 0.317472 0.582623
vt 0.375000 0.296333
vt 0.375000 0.352000
vt 0.500000 0.333333
vt 0.454750 0.389000
vt 0.429926 0.421926
vt 0.375000 0.398333
vt 0.526583 0.500000
vt 0.481333 0.500000
vt 0.500000 0.666667
vt 0.454750 0.611000
vt 0.425227 0.588278
vt 0.445417 0.500000
vt 0.375000 0.703667
vt 0.375000 0.648000
vt 0.250000 0.666667
vt 0.375000 0.601667
vt 0.375000 0.500000
vt 0.875000 0.666667
vt 0.968750 0.625000
vt 0.750000 0.666667
vt 0.781250 0.625000
vt 0.801140 0.599165
vt 0.875000 0.625000
vt 0.936471 0.607339
vt 0.718750 0.500000
vt 0.750000 0.500000
vt 0.750000 0.333333
vt 0.781250 0.375000
vt 0.796296 0.419753
vt 0.781250 0.500000
vt 0.875000 0.333333
vt 1.000000 0.333333
vt 0.968750 0.375000
vt 0.944444 0.407407
vt 0.875000 0.375000
vt 1.000000 0.500000
vt 1.000000 0.666667
vt 0.968750 0.500000
vt 0.875000 0.500000
vt 0.375000 1.000000
vt 0.000000 0.500000
vt 0.000000 0.333333
vt 0.375000 0.000000
vt 0.500000 0.000000
vt 0.500000 1.000000
vt 0.250000 1.000000
vt 0.250000 0.000000
vt 0.000000 0.666667
vn -0.877000 0.293200 0.380700
vn -0.862700 0.183800 0.471100
vn -0.790800 0.341500 0.507900
vn -0.877500 -0.299300 0.374800
vn -0.875600 -0.292900 0.384000
vn -0.830400 -0.232200 0.506400
vn -0.777600 -0.108400 0.619400
vn -0.659400 -0.436800 0.611900
vn -0.475800 -0.456900 0.751600
vn -0.820800 0.200900 0.534800
vn -0.729100 0.263800 0.631500
vn -0.691200 0.558300 0.458800
vn -0.293200 -0.877000 0.380700
vn -0.183800 -0.862700 0.471100
vn -0.341500 -0.790800 0.507900
vn 0.299300 -0.877500 0.374800
vn 0.292900 -0.875600 0.384000
vn 0.232200 -0.830400 0.506400
vn 0.108400 -0.777600 0.619400
vn 0.436800 -0.659400 0.611900
vn 0.456900 -0.475800 0.751600
vn -0.200900 -0.820800 0.534800
vn -0.263800 -0.729100 0.631500
vn -0.558300 -0.691200 0.458800
vn 0.877000 -0.293200 0.380700
vn 0.862700 -0.183800 0.471100
vn 0.790800 -0.341500 0.507900
vn 0.877500 0.299300 0.374800
vn 0.875600 0.292900 0.384000
vn 0.830400 0.232200 0.506400
vn 0.777600 0.108400 0.619400
vn 0.659400 0.436800 0.611900
vn 0.475800 0.456900 0.751600
vn 0.820800 -0.200900 0.534800
vn 0.729100 -0.263800 0.631500
vn 0.691200 -0.558300 0.458800
vn 0.293200 0.877000 0.380700
vn 0.183800 0.862700 0.471100
vn 0.341500 0.790800 0.507900
vn -0.299300 0.877500 0.374800
vn -0.292900 0.875600 0.384000
vn -0.232200 0.830400 0.506400
vn -0.108400 0.777600 0.619400
vn -0.436800 0.659400 0.611900
vn -0.456900 0.475800 0.751600
vn 0.200900 0.820800 0.534800
vn 0.263800 0.729100 0.631500
vn 0.558300 0.691200 0.458800
vn 0.128000 0.083700 0.988200
vn 0.101900 0.082400 0.991400
vn 0.101400 0.078900 0.991700
vn -0.089500 0.089500 0.992000
vn -0.076500 0.099500 0.992100
vn -0.078900 0.101400 0.991700
vn -0.079600 -0.099800 0.991800
vn -0.076500 -0.099500 0.992100
vn -0.072500 -0.083800 0.993800
vn 0.099800 -0.079600 0.991800
vn 0.099500 -0.076500 0.992100
vn 0.089500 -0.089500 0.992000
vn -0.316700 0.948500 -0.000600
vn -0.316200 0.948700 0.000000
vn 0.316900 0.948400 -0.000100
vn 0.315000 0.949100 0.000100
vn 0.316200 0.948700 0.000000
vn 0.199200 0.587500 -0.784300
vn 0.182500 0.585800 -0.789600
vn 0.187800 0.592700 -0.783200
vn -0.240000 0.625700 -0.742300
vn -0.284000 0.642700 -0.711500
vn -0.230700 0.638700 -0.734100
vn 0.949100 0.315000 0.000200
vn 0.948500 0.316700 -0.000500
vn 0.948700 0.316200 0.000000
vn 0.948400 -0.316900 -0.000100
vn 0.949100 -0.315000 0.000100
vn 0.948700 -0.316200 -0.000000
vn 0.587500 -0.199200 -0.784300
vn 0.585800 -0.182500 -0.789600
vn 0.592200 -0.193900 -0.782100
vn 0.625700 0.240000 -0.742300
vn 0.643000 0.285800 -0.710500
vn 0.634800 0.236600 -0.735500
vn 0.316700 -0.948500 -0.000600
vn 0.316200 -0.948700 0.000000
vn -0.315000 -0.949100 -0.000200
vn -0.316200 -0.948700 0.000000
vn -0.014700 -0.495700 -0.868300
vn -0.182500 -0.585800 -0.789600
vn -0.190400 -0.424000 -0.885400
vn 0.021100 -0.673600 -0.738800
vn 0.032300 -0.386100 -0.921900
vn 0.236800 -0.633200 -0.736900
vn -0.948500 -0.316700 -0.000600
vn -0.948700 -0.316200 -0.000000
vn -0.949100 0.315000 -0.000200
vn -0.948700 0.316200 0.000000
vn -0.495700 0.014700 -0.868300
vn -0.585800 0.182500 -0.789600
vn -0.598100 0.184300 -0.780000
vn -0.673600 -0.021100 -0.738800
vn -0.388000 -0.030200 -0.921100
vn -0.546600 -0.413900 -0.728000
vn -0.030200 0.037600 -0.998800
vn -0.078200 -0.002300 -0.996900
vn -0.052600 0.016200 -0.998500
vn 0.037100 0.037400 -0.998600
vn -0.004100 0.079100 -0.996900
vn 0.016200 0.052600 -0.998500
vn 0.023200 -0.035800 -0.999100
vn -0.003200 -0.080300 -0.996800
vn 0.034900 -0.038700 -0.998600
vn -0.030300 0.022300 -0.999300
vn -0.011800 -0.337800 -0.941200
vn -0.409500 -0.132500 -0.902600
vn 0.313700 0.940600 0.129500
vn 0.319700 0.938700 0.128800
vn 0.304300 0.943400 0.131600
vn 0.943400 0.304300 0.131600
vn 0.941600 0.313600 0.122400
vn 0.940600 0.313700 0.129500
vn -0.304300 0.943400 0.131600
vn -0.313600 0.941600 0.122400
vn -0.313700 0.940600 0.129500
vn 0.940600 -0.313700 0.129500
vn 0.938700 -0.319700 0.128800
vn 0.943400 -0.304300 0.131600
vn -0.940500 -0.314200 0.129200
vn -0.940600 -0.313600 0.130000
vn -0.943800 -0.307600 0.121200
vn -0.313700 -0.940600 0.129500
vn -0.319700 -0.938700 0.128800
vn -0.304300 -0.943400 0.131600
vn -0.940600 0.313700 0.129500
vn -0.938700 0.319700 0.128800
vn -0.943400 0.304300 0.131600
vn 0.314200 -0.940500 0.129200
vn 0.313600 -0.940600 0.130000
vn 0.307600 -0.943800 0.121200
vn -0.875600 0.292900 0.384000
vn -0.876700 0.298400 0.377300
vn -0.825000 0.226300 0.517900
vn -0.860700 -0.186500 0.473800
vn -0.876700 -0.298400 0.377300
vn -0.799100 -0.337800 0.497200
vn -0.727200 -0.265800 0.632900
vn -0.821100 -0.204600 0.532800
vn -0.693100 -0.551600 0.464000
vn -0.655900 0.441300 0.612400
vn -0.775300 0.106400 0.622600
vn -0.468800 0.462000 0.752800
vn -0.292900 -0.875600 0.384000
vn -0.298400 -0.876700 0.377300
vn -0.226300 -0.825000 0.517900
vn 0.186500 -0.860700 0.473800
vn 0.298400 -0.876700 0.377300
vn 0.337800 -0.799100 0.497200
vn 0.265800 -0.727200 0.632900
vn 0.204600 -0.821100 0.532800
vn 0.551600 -0.693100 0.464000
vn -0.441300 -0.655900 0.612400
vn -0.106400 -0.775300 0.622600
vn -0.462000 -0.468800 0.752800
vn 0.875600 -0.292900 0.384000
vn 0.876700 -0.298400 0.377300
vn 0.825000 -0.226300 0.517900
vn 0.860700 0.186500 0.473800
vn 0.876700 0.298400 0.377300
vn 0.799100 0.337800 0.497200
vn 0.727200 0.265800 0.632900
vn 0.821100 0.204600 0.532800
vn 0.693100 0.551600 0.464000
vn 0.655900 -0.441300 0.612400
vn 0.775300 -0.106400 0.622600
vn 0.468800 -0.462000 0.752800
vn 0.292900 0.875600 0.384000
vn 0.298400 0.876700 0.377300
vn 0.226300 0.825000 0.517900
vn -0.186500 0.860700 0.473800
vn -0.298400 0.876700 0.377300
vn -0.337800 0.799100 0.497200
vn -0.265800 0.727200 0.632900
vn -0.204600 0.821100 0.532800
vn -0.551600 0.693100 0.464000
vn 0.441300 0.655900 0.612400
vn 0.106400 0.775300 0.622600
vn 0.462000 0.468800 0.752800
vn 0.082400 0.101900 0.991400
vn 0.083700 0.128000 0.988200
vn 0.079600 0.099800 0.991800
vn -0.093300 0.075900 0.992700
vn -0.097100 0.060400 0.993400
vn -0.099800 0.079600 0.991800
vn -0.099500 -0.076500 0.992100
vn -0.101400 -0.078900 0.991700
vn -0.083800 -0.072500 0.993800
vn 0.075900 -0.093300 0.992700
vn 0.078900 -0.101400 0.991700
vn 0.060400 -0.097100 0.993400
vn -0.315000 0.949100 0.000100
vn -0.316900 0.948400 -0.000100
vn 0.316700 0.948500 -0.000600
vn 0.283300 0.643600 -0.711000
vn 0.256100 0.629100 -0.734000
vn 0.235400 0.633100 -0.737500
vn -0.186900 0.575100 -0.796500
vn -0.191000 0.575400 -0.795200
vn -0.199000 0.597800 -0.776600
vn 0.949100 0.315000 -0.000200
vn 0.948500 -0.316700 -0.000600
vn 0.644600 -0.284500 -0.709700
vn 0.629100 -0.256100 -0.734000
vn 0.633700 -0.237200 -0.736300
vn 0.575100 0.186900 -0.796500
vn 0.575400 0.191000 -0.795200
vn 0.592500 0.197100 -0.781100
vn 0.315000 -0.949100 0.000100
vn 0.316900 -0.948400 -0.000100
vn -0.316700 -0.948500 -0.000500
vn -0.315000 -0.949100 0.000200
vn -0.055100 -0.482900 -0.873900
vn -0.038600 -0.671600 -0.739900
vn -0.390400 -0.512600 -0.764700
vn 0.186900 -0.575100 -0.796500
vn -0.000000 -0.487200 -0.873300
vn 0.191100 -0.592300 -0.782700
vn -0.949100 -0.315000 0.000100
vn -0.948400 -0.316900 -0.000100
vn -0.948500 0.316700 -0.000500
vn -0.949100 0.315000 0.000200
vn -0.485000 0.062800 -0.872200
vn -0.671600 0.038600 -0.739900
vn -0.635900 0.228800 -0.737100
vn -0.575100 -0.186900 -0.796500
vn -0.487200 0.000000 -0.873300
vn -0.423300 -0.234500 -0.875100
vn -0.339800 0.013800 -0.940400
vn -0.026600 0.032700 -0.999100
vn -0.023200 0.035800 -0.999100
vn 0.078900 -0.001800 -0.996900
vn 0.039000 0.030100 -0.998800
vn 0.035800 0.023200 -0.999100
vn 0.074700 -0.225100 -0.971500
vn 0.052600 -0.016200 -0.998500
vn 0.039200 -0.032700 -0.998700
vn -0.227900 -0.072000 -0.971000
vn 0.019800 -0.024300 -0.999500
vn -0.101900 -0.416500 -0.903400
vn 0.313600 0.940600 0.130000
vn 0.314200 0.940500 0.129200
vn 0.307600 0.943800 0.121200
vn 0.940600 0.313600 0.130000
vn 0.943800 0.307600 0.121200
vn 0.940500 0.314200 0.129200
vn -0.313600 0.940600 0.130000
vn -0.307600 0.943800 0.121200
vn -0.314200 0.940500 0.129200
vn 0.940600 -0.313600 0.130000
vn 0.940500 -0.314200 0.129200
vn 0.943800 -0.307600 0.121200
vn -0.941600 -0.313600 0.122400
vn -0.940600 -0.313700 0.129500
vn -0.943400 -0.304300 0.131600
vn -0.313600 -0.940600 0.130000
vn -0.314200 -0.940500 0.129200
vn -0.307600 -0.943800 0.121200
vn -0.940600 0.313600 0.130000
vn -0.940500 0.314200 0.129200
vn -0.943800 0.307600 0.121200
vn 0.313600 -0.941600 0.122400
vn 0.313700 -0.940600 0.129500
vn 0.304300 -0.943400 0.131600
usemtl Default
s off
f 22/1/1 28/2/2 27/3/3
f 22/1/4 4/4/5 25/5/6
f 28/2/7 25/5/8 10/6/9
f 28/2/10 26/7/11 12/8/12
f 18/9/13 31/10/14 25/5/15
f 18/9/16 3/11/17 29/12/18
f 31/10/19 29/12/20 9/13/21
f 31/10/22 30/14/23 10/6/24
f 19/15/25 34/16/26 29/12/27
f 19/15/28 7/17/29 32/18/30
f 34/16/31 32/18/32 11/19/33
f 34/16/34 33/20/35 9/13/36
f 23/21/37 36/22/38 32/18/39
f 23/21/40 8/23/41 27/3/42
f 36/22/43 27/3/44 12/8/45
f 36/22/46 35/24/47 11/19/48
f 11/19/49 35/24/50 37/25/51
f 12/8/52 26/7/53 37/25/54
f 37/25/55 26/7/56 10/6/57
f 37/25/58 30/14/59 9/13/60
f 24/26/61 41/26/62 40/27/62
f 24/26/63 6/28/64 38/29/65
f 41/26/66 38/29/67 16/30/68
f 41/26/69 39/31/70 15/32/71
f 6/28/72 20/33/73 44/34/74
f 20/33/75 2/35/76 42/36/77
f 44/34/78 42/36/79 14/37/80
f 44/34/81 43/38/82 16/30/83
f 17/39/84 47/39/85 42/36/85
f 1/40/86 45/41/87 47/39/87
f 47/39/88 45/41/89 13/42/90
f 47/39/91 46/43/92 14/37/93
f 21/44/94 49/44/95 45/41/95
f 5/45/96 40/27/97 49/44/97
f 49/44/98 40/27/99 15/32/100
f 49/44/101 48/46/102 13/42/103
f 15/32/104 39/31/105 50/47/106
f 16/30/107 43/38/108 50/47/109
f 50/47/110 43/38/111 14/37/112
f 50/47/113 46/43/114 13/42/115
f 24/48/116 23/21/117 7/17/118
f 7/17/119 19/15/120 20/33/121
f 8/23/122 23/21/123 24/48/124
f 20/33/125 19/15/126 3/11/127
f 21/49/128 1/50/129 4/4/130
f 17/51/131 18/9/132 4/4/133
f 21/49/134 22/1/135 8/23/136
f 17/51/137 2/52/138 3/11/139
f 8/23/140 22/1/141 27/3/142
f 28/2/143 22/1/144 25/5/145
f 26/7/146 28/2/147 10/6/148
f 27/3/149 28/2/150 12/8/151
f 4/4/152 18/9/153 25/5/154
f 31/10/155 18/9/156 29/12/157
f 30/14/158 31/10/159 9/13/160
f 25/5/161 31/10/162 10/6/163
f 3/11/164 19/15/165 29/12/166
f 34/16/167 19/15/168 32/18/169
f 33/20/170 34/16/171 11/19/172
f 29/12/173 34/16/174 9/13/175
f 7/17/176 23/21/177 32/18/178
f 36/22/179 23/21/180 27/3/181
f 35/24/182 36/22/183 12/8/184
f 32/18/185 36/22/186 11/19/187
f 33/20/188 11/19/189 37/25/190
f 35/24/191 12/8/192 37/25/193
f 30/14/194 37/25/195 10/6/196
f 33/20/197 37/25/198 9/13/199
f 5/45/200 24/26/201 40/27/62
f 41/26/65 24/26/202 38/29/65
f 39/31/203 41/26/204 16/30/205
f 40/27/206 41/26/207 15/32/208
f 38/29/74 6/28/209 44/34/74
f 44/34/77 20/33/210 42/36/77
f 43/38/211 44/34/212 14/37/213
f 38/29/214 44/34/215 16/30/216
f 2/35/217 17/39/218 42/36/85
f 17/39/219 1/40/220 47/39/87
f 46/43/221 47/39/222 13/42/223
f 42/36/224 47/39/225 14/37/226
f 1/40/227 21/44/228 45/41/95
f 21/44/229 5/45/230 49/44/97
f 48/46/231 49/44/232 15/32/233
f 45/41/234 49/44/235 13/42/236
f 48/46/237 15/32/238 50/47/239
f 39/31/240 16/30/241 50/47/242
f 46/43/243 50/47/244 14/37/245
f 48/46/246 50/47/247 13/42/248
f 6/53/249 24/48/250 7/17/251
f 6/28/252 7/17/253 20/33/254
f 5/54/255 8/23/256 24/48/257
f 2/35/258 20/33/259 3/11/260
f 22/1/261 21/49/262 4/4/263
f 1/55/264 17/51/265 4/4/266
f 5/56/267 21/49/268 8/23/269
f 18/9/270 17/51/271 3/11/272
