# Blender v2.76 (sub 0) OBJ File: ''
# www.blender.org
o Default.003
v -2.000000 -0.050000 -2.000000
v -3.000000 -0.050000 -2.000000
v -3.000000 -0.050000 -3.000000
v -2.000000 -0.050000 -3.000000
v -2.000000 0.050000 -2.000000
v -3.000000 0.050000 -2.000000
v -3.000000 0.050000 -3.000000
v -2.000000 0.050000 -3.000000
v 3.000000 0.050000 -3.000000
v 3.000000 0.050000 -2.000000
v 3.000000 -0.050000 -2.000000
v 3.000000 -0.050000 -3.000000
v -1.002000 0.050000 -3.000000
v -1.002000 0.050000 -2.000000
v -1.002000 -0.050000 -2.000000
v -1.002000 -0.050000 -3.000000
v 2.999000 -0.049900 -1.000000
v -1.001000 -0.049900 -1.000000
v 2.999000 0.049900 -1.000000
v -1.001000 0.049900 -1.000000
v 2.005000 -0.050000 3.000000
v -0.005000 -0.050000 3.000000
v -0.005000 -0.050000 0.990000
v 2.005000 -0.050000 0.990000
v 2.005000 0.050000 3.000000
v -0.005000 0.050000 3.000000
v -0.005000 0.050000 0.990000
v 2.005000 0.050000 0.990000
v 1.519750 0.050000 1.475250
v 1.000000 0.050000 1.302000
v 1.000000 0.264000 1.302000
v 1.519750 0.264000 1.475250
v 0.480250 0.050000 1.475250
v 0.480250 0.264000 1.475250
v 0.493750 0.394500 1.488750
v 1.000000 0.394500 1.320000
v 1.506250 0.394500 1.488750
v 0.307000 0.050000 1.995000
v 0.307000 0.264000 1.995000
v 0.480250 0.050000 2.514750
v 0.480250 0.264000 2.514750
v 0.493750 0.394500 2.501250
v 0.325000 0.394500 1.995000
v 1.000000 0.050000 2.688000
v 1.000000 0.264000 2.688000
v 1.519750 0.050000 2.514750
v 1.519750 0.264000 2.514750
v 1.506250 0.394500 2.501250
v 1.000000 0.394500 2.670000
v 1.693000 0.050000 1.995000
v 1.693000 0.264000 1.995000
v 1.675000 0.394500 1.995000
v 1.305000 0.175867 2.300000
v 1.411750 0.170675 1.995000
v 1.000000 0.164000 1.995000
v 1.000000 0.170675 2.406750
v 1.305000 0.175867 1.690000
v 1.000000 0.170675 1.583250
v 0.695000 0.175867 1.690000
v 0.588250 0.170675 1.995000
v 0.695000 0.175867 2.300000
v 0.588250 0.190700 1.583250
v 1.000000 0.190700 1.446000
v 1.411750 0.190700 1.583250
v 0.588250 0.190700 2.406750
v 0.451000 0.190700 1.995000
v 1.411750 0.190700 2.406750
v 1.000000 0.190700 2.544000
v 1.549000 0.190700 1.995000
v 1.000000 0.459500 2.544000
v 1.411750 0.459500 2.406750
v 1.549000 0.459500 1.995000
v 1.411750 0.459500 1.583250
v 0.588250 0.459500 1.583250
v 0.451000 0.459500 1.995000
v 0.588250 0.459500 2.406750
v 1.000000 0.459500 1.446000
v 1.000000 0.442000 1.348910
v 0.515434 0.442000 1.510430
v 1.646090 0.442000 1.995000
v 1.484570 0.442000 1.510430
v 0.515434 0.442000 2.479570
v 1.000000 0.442000 2.641090
v 1.484570 0.442000 2.479570
v 0.353911 0.442000 1.995000
vt 0.500000 0.000000
vt 0.500000 0.333333
vt 0.250000 0.333333
vt 0.750000 0.666667
vt 0.750000 0.333333
vt 1.000000 0.333333
vt 0.500000 0.666667
vt 0.250000 0.666667
vt 0.500000 1.000000
vt 0.000000 0.666667
vt 0.000000 0.333333
vt 0.250000 1.000000
vt 0.375000 1.000000
vt 1.000000 0.666667
vt 0.875000 0.333333
vt 0.250000 0.000000
vt 0.375000 0.333333
vt 0.375000 0.666667
vt 0.999742 0.333592
vt 0.875129 0.333592
vt 0.999742 0.666512
vt 0.375904 0.999225
vt 0.314933 0.741755
vt 0.375000 0.711941
vt 0.432615 0.738021
vt 0.434795 0.742289
vt 0.428798 0.742981
vt 0.375000 0.714553
vt 0.318773 0.746584
vt 0.454726 0.833333
vt 0.437286 0.920585
vt 0.434795 0.924378
vt 0.433397 0.915850
vt 0.452114 0.833333
vt 0.375000 0.954726
vt 0.315205 0.924378
vt 0.319067 0.919506
vt 0.375000 0.952114
vt 0.295274 0.833333
vt 0.315205 0.742289
vt 0.297886 0.833333
vt 0.342316 0.889165
vt 0.330877 0.833333
vt 0.375000 0.833333
vt 0.341227 0.774400
vt 0.375000 0.757960
vt 0.404779 0.767576
vt 0.419123 0.833333
vt 0.412042 0.881721
vt 0.375000 0.732836
vt 0.433831 0.833333
vt 0.375000 0.908707
vt 0.375000 0.933831
vt 0.316169 0.833333
vt 0.375000 0.706281
vt 0.460386 0.833333
vt 0.375000 0.960386
vt 0.289614 0.833333
vt 0.330877 0.908707
vt 0.330877 0.757960
vt 0.419123 0.757960
vt 0.419123 0.908707
vt 0.375000 0.723694
vt 0.423961 0.750471
vt 0.307027 0.833333
vt 0.324825 0.752272
vt 0.426260 0.912278
vt 0.375000 0.942973
vt 0.324972 0.914106
vt 0.442973 0.833333
vn 0.000000 -1.000000 0.000000
vn 0.000000 0.000000 1.000000
vn -1.000000 0.000000 0.000000
vn 0.000000 0.000000 -1.000000
vn 0.000000 1.000000 -0.000000
vn 1.000000 0.000000 0.000000
vn -0.002300 1.000000 -0.002300
vn 0.003300 1.000000 -0.000000
vn -0.004900 1.000000 0.000000
vn -0.004800 -1.000000 -0.001200
vn -0.000000 -1.000000 0.005000
vn 0.000000 -0.999900 0.010000
vn -0.004200 -0.999900 0.009100
vn 1.000000 0.000000 0.001000
vn 0.000000 1.000000 0.003400
vn -0.000000 0.999900 0.010000
vn 0.004200 0.999900 0.009100
vn -1.000000 0.000000 0.001000
vn -0.392300 0.046400 -0.918600
vn 0.193200 0.791700 -0.579600
vn 0.341700 -0.930800 -0.129900
vn -0.236400 0.664300 -0.709100
vn 0.250200 -0.888700 -0.384200
vn -0.992200 -0.089100 0.086900
vn -0.973300 0.203100 0.106600
vn 0.773000 0.378900 -0.508800
vn 0.000200 -0.751500 -0.659800
vn 0.835000 0.539800 0.106900
vn 0.752100 -0.565400 -0.338800
vn -0.634600 -0.033000 -0.772100
vn -0.579600 0.791700 -0.193200
vn -0.103300 -0.900900 -0.421500
vn -0.572600 -0.087100 0.815200
vn -0.709100 0.664300 0.236400
vn -0.384200 -0.888700 -0.250200
vn 0.086900 -0.089100 0.992200
vn 0.106600 0.203100 0.973300
vn -0.508800 0.378900 -0.773000
vn -0.659800 -0.751500 -0.000200
vn 0.106900 0.539800 -0.835000
vn -0.338800 -0.565300 -0.752000
vn -0.766800 0.022600 0.641500
vn -0.193200 0.791700 0.579600
vn -0.421500 -0.900900 0.103300
vn 0.815200 -0.087100 0.572600
vn 0.236400 0.664300 0.709100
vn -0.250200 -0.888700 0.384200
vn 0.992200 -0.089100 -0.086900
vn 0.973300 0.203100 -0.106600
vn -0.773000 0.378900 0.508800
vn -0.000200 -0.751500 0.659800
vn -0.835000 0.539800 -0.106900
vn -0.752100 -0.565400 0.338800
vn 0.641500 0.022600 0.766800
vn 0.919200 -0.000000 -0.393900
vn 0.579600 0.791700 0.193200
vn 0.129900 -0.930800 0.341700
vn 0.756000 0.647600 -0.095700
vn 0.485100 -0.677600 0.552800
vn -0.086900 -0.089100 -0.992200
vn -0.106600 0.203100 -0.973300
vn 0.408900 0.687000 0.600700
vn 0.736100 -0.613300 0.286300
vn -0.106900 0.539800 0.835000
vn 0.338800 -0.565400 0.752100
vn 0.766800 0.022600 -0.641500
vn -0.052300 0.993400 -0.102500
vn -0.084400 0.996100 0.025900
vn -0.016200 0.999600 -0.022700
vn -0.102500 0.993400 0.052300
vn 0.025900 0.996100 0.084400
vn -0.022700 0.999600 0.016200
vn 0.022700 0.999600 0.016200
vn -0.025800 0.996100 0.084500
vn 0.110300 0.993700 0.018200
vn 0.016200 0.999600 -0.022700
vn 0.084400 0.996100 0.025900
vn 0.018200 0.993700 -0.110300
vn 0.141000 0.985300 0.096500
vn -0.001000 0.995400 0.096000
vn -0.226900 0.111900 0.967500
vn 0.567400 0.158400 0.808100
vn 0.001000 0.995400 0.096000
vn -0.146100 0.983600 0.105700
vn 0.096500 0.985300 -0.141000
vn 0.096000 0.995400 0.001000
vn 0.967500 0.111900 0.226900
vn 0.808100 0.158400 -0.567400
vn 0.096000 0.995400 -0.001000
vn 0.105700 0.983600 0.146100
vn -0.141000 0.985300 -0.096500
vn 0.014100 0.992200 -0.124100
vn 0.226900 0.111900 -0.967500
vn -0.567400 0.158400 -0.808100
vn 0.021400 0.997000 -0.074500
vn 0.146100 0.983600 -0.105700
vn -0.096500 0.985300 0.141000
vn -0.096000 0.995400 -0.001000
vn -0.967500 0.111900 -0.226900
vn -0.808100 0.158400 0.567400
vn -0.096000 0.995400 0.001000
vn -0.105700 0.983600 -0.146100
vn 0.756100 0.611000 -0.234700
vn -0.234700 0.611000 -0.756100
vn -0.756100 0.611000 0.234700
vn 0.234700 0.611000 0.756100
vn -0.473000 -0.345500 -0.810500
vn -0.699800 0.703400 0.124700
vn 0.836800 0.151200 -0.526200
vn -0.980600 -0.167800 -0.101500
vn -0.782900 -0.279700 0.555800
vn -0.004800 0.950300 0.311300
vn -0.943500 -0.331200 -0.009800
vn -0.354200 0.878500 0.320600
vn 0.204800 0.272200 -0.940200
vn 0.919700 -0.384100 0.081100
vn 0.354200 0.878500 -0.320600
vn -0.204800 0.272200 0.940200
vn 0.810500 -0.345500 -0.473000
vn -0.124700 0.703400 -0.699800
vn 0.526200 0.151200 0.836800
vn 0.530700 -0.303800 0.791200
vn 0.699800 0.703400 -0.124700
vn -0.836800 0.151200 0.526200
vn -0.651300 -0.108300 0.751000
vn 0.089400 -0.195800 0.976600
vn 0.186100 0.932600 0.309300
vn 0.009800 -0.331200 -0.943500
vn -0.320600 0.878500 -0.354200
vn 0.940200 0.272300 0.204800
vn -0.543500 0.838600 0.036800
vn 0.314000 0.925100 0.213400
vn -0.130800 0.829000 -0.543700
vn -0.955000 0.280500 -0.096600
vn 0.669400 0.477300 -0.569300
vn 0.250900 0.378800 -0.890800
vn -0.036800 0.838600 -0.543500
vn -0.213300 0.925100 0.314000
vn 0.548600 0.836100 0.001300
vn 0.096600 0.280400 -0.955000
vn 0.393400 0.715800 0.577000
vn 0.890800 0.378800 0.250900
vn 0.001300 0.836100 0.548600
vn 0.468500 0.858200 0.209800
vn -0.508400 0.854000 -0.110400
vn -0.275700 -0.024800 0.960900
vn 0.389100 0.894000 0.222300
vn -0.955000 0.280500 0.096600
vn 0.548600 0.836100 -0.001300
vn 0.209800 0.858200 -0.468500
vn -0.091500 0.850000 0.518800
vn 0.960900 -0.024800 0.275700
vn 0.222300 0.894000 -0.389000
vn 0.096600 0.280400 0.955000
vn -0.510300 0.850600 0.127200
vn -0.316200 0.837600 0.445500
vn 0.110400 0.854000 -0.508400
vn -0.900900 -0.012700 -0.433900
vn -0.222200 0.894000 0.389100
vn -0.096700 0.280500 -0.955000
vn 0.550700 0.834500 -0.016400
vn -0.384500 0.914100 -0.128600
vn -0.001300 0.836100 0.548600
vn 0.955000 0.280400 0.096600
vn -0.669400 0.477300 0.569300
vn -0.182400 0.237100 0.954200
vn -0.001300 0.836100 -0.548600
vn -0.445500 0.837600 -0.316200
vn 0.518800 0.850000 0.091500
vn 0.433900 -0.012800 -0.900900
vn -0.577000 0.715800 -0.393400
vn 0.955000 0.280400 -0.096600
vn 0.016400 0.834600 0.550700
vn 0.128600 0.914100 -0.384500
vn -0.548600 0.836100 -0.001300
vn -0.096700 0.280500 0.955000
vn -0.569300 0.477300 -0.669400
vn -0.954200 0.237200 -0.182400
vn 0.000000 1.000000 -0.003300
vn 0.000000 -1.000000 -0.003300
vn 0.003200 1.000000 -0.000800
vn 0.003300 -1.000000 0.000000
vn -0.004900 -1.000000 0.000000
vn -0.000000 -1.000000 0.003400
vn -0.004800 -1.000000 0.001300
vn 0.001600 -0.999900 0.009900
vn 0.000000 1.000000 0.005000
vn 0.003200 1.000000 0.000900
vn -0.001600 0.999900 0.009900
vn -0.552600 -0.677800 -0.485000
vn -0.284700 0.373800 -0.882800
vn 0.960000 -0.269400 0.076200
vn -0.944200 0.000000 -0.329300
vn 0.350700 0.241700 -0.904800
vn -0.797900 -0.602400 0.022200
vn -0.752100 -0.565300 -0.338800
vn -0.360900 0.932600 0.003000
vn 0.624200 -0.088300 -0.776300
vn -0.600900 0.686800 -0.408900
vn 0.991500 0.086900 0.096600
vn -0.286400 -0.613300 -0.736100
vn -0.919200 0.000000 0.393900
vn -0.346400 0.288000 -0.892800
vn -0.509200 -0.591500 0.625100
vn -0.329300 0.000000 0.944200
vn -0.904800 0.241700 -0.350700
vn 0.022200 -0.602400 0.797900
vn -0.338800 -0.565300 0.752100
vn 0.003000 0.932600 0.360900
vn -0.776300 -0.088300 -0.624200
vn -0.288500 0.899700 0.327500
vn 0.096600 0.086900 -0.991500
vn -0.776500 -0.375100 0.506300
vn 0.393900 0.000000 0.919200
vn -0.892800 0.288000 0.346400
vn 0.625100 -0.591500 0.509200
vn 0.944200 -0.000000 0.329300
vn -0.350700 0.241700 0.904800
vn 0.797900 -0.602400 -0.022200
vn 0.752100 -0.565300 0.338800
vn 0.360900 0.932600 -0.003000
vn -0.624200 -0.088300 0.776300
vn 0.327500 0.899700 0.288500
vn -0.991500 0.086900 -0.096600
vn 0.506300 -0.375100 0.776500
vn 0.551800 -0.358900 -0.752800
vn 0.904800 0.241700 -0.350700
vn -0.076200 -0.269400 0.960000
vn 0.329300 -0.000000 -0.944200
vn 0.909600 0.197900 0.365300
vn -0.022200 -0.602400 -0.797900
vn 0.338800 -0.565300 -0.752100
vn -0.003000 0.932600 -0.360900
vn 0.772100 -0.033000 0.634600
vn 0.288500 0.899700 -0.327500
vn -0.096600 0.086900 0.991500
vn 0.776500 -0.375100 -0.506300
vn 0.008000 0.995500 -0.094100
vn -0.110300 0.993700 -0.018200
vn -0.022700 0.999600 -0.016200
vn -0.084500 0.996100 -0.025800
vn -0.018200 0.993700 0.110300
vn -0.016200 0.999600 0.022700
vn 0.084500 0.996100 -0.025800
vn 0.016200 0.999600 0.022700
vn 0.052300 0.993400 0.102500
vn -0.040800 0.996700 -0.070800
vn 0.022700 0.999600 -0.016200
vn 0.102500 0.993400 -0.052300
vn 0.970400 0.045200 0.237300
vn 0.013400 0.999700 0.018600
vn -0.807200 0.206400 0.553000
vn -0.893300 0.025900 0.448700
vn 0.879000 0.222600 0.421600
vn -0.065000 0.997700 0.021300
vn 0.237400 0.045200 -0.970400
vn 0.018600 0.999700 -0.013400
vn 0.553000 0.206400 0.807200
vn 0.237400 0.045200 0.970400
vn 0.421600 0.222600 -0.879000
vn 0.021300 0.997700 0.065000
vn -0.970400 0.045200 -0.237400
vn -0.013400 0.999700 -0.018600
vn 0.807200 0.206400 -0.553000
vn 0.970400 0.045200 -0.237400
vn -0.879000 0.222600 -0.421600
vn 0.065000 0.997700 -0.021300
vn -0.014500 0.067500 0.997600
vn -0.018600 0.999700 0.013400
vn -0.553000 0.206400 -0.807200
vn -0.237400 0.045200 -0.970400
vn -0.421600 0.222600 0.879000
vn -0.021300 0.997700 -0.065000
vn 0.630200 0.747400 -0.210100
vn -0.756100 0.611000 -0.234700
vn 0.751000 0.611000 0.250300
vn 0.260700 0.747400 -0.611100
vn -0.210100 0.747400 -0.630200
vn -0.234700 0.611000 0.756100
vn 0.250300 0.611000 -0.751000
vn -0.469800 0.747400 -0.469800
vn -0.630200 0.747400 0.210100
vn 0.756100 0.611000 0.234700
vn -0.751000 0.611000 -0.250300
vn -0.469800 0.747400 0.469800
vn 0.430000 0.747400 0.506400
vn 0.234700 0.611000 -0.756100
vn -0.250300 0.611000 0.751000
vn 0.469800 0.747400 0.469800
vn -0.098300 -0.393600 -0.914000
vn -0.651300 -0.108300 -0.751000
vn 0.540900 0.724300 -0.427600
vn -0.500400 0.416100 -0.759300
vn -0.893000 -0.420200 0.161300
vn 0.193100 0.379000 0.905000
vn -0.782900 -0.279600 -0.555800
vn -0.989300 -0.071300 0.127500
vn 0.055300 0.869000 -0.491700
vn 0.811800 -0.347700 0.469200
vn 0.985800 -0.120300 -0.117100
vn -0.055300 0.869000 0.491800
vn 0.950400 -0.310900 0.010900
vn 0.751000 -0.108300 -0.651300
vn 0.427600 0.724300 0.540900
vn 0.098300 -0.393600 0.914000
vn 0.659900 -0.069000 0.748200
vn -0.540900 0.724300 0.427600
vn -0.876700 0.444700 -0.183600
vn -0.473000 -0.345500 0.810500
vn 0.775800 0.377100 0.505900
vn 0.555700 -0.279700 -0.782900
vn -0.127500 -0.071300 -0.989300
vn 0.491700 0.869000 0.055300
vn -0.479500 0.839200 -0.256600
vn -0.440400 0.874700 0.202400
vn 0.300800 0.892300 -0.336600
vn -0.412900 -0.023300 -0.910500
vn -0.642200 0.761100 0.091600
vn 0.262300 0.426300 -0.865700
vn 0.256600 0.839200 -0.479500
vn -0.202400 0.874700 -0.440400
vn 0.323700 0.895000 0.306900
vn 0.910500 -0.023300 -0.412900
vn -0.091600 0.761100 -0.642200
vn 0.865700 0.426300 0.262300
vn -0.284100 0.802700 0.524400
vn 0.306900 0.895000 0.323700
vn -0.050100 0.928100 -0.368900
vn -0.733200 0.424800 0.531000
vn 0.253500 0.387900 0.886200
vn -0.642200 0.761000 -0.091600
vn 0.524400 0.802700 0.284100
vn 0.323700 0.895000 -0.306900
vn -0.357500 0.919100 0.165500
vn 0.630800 0.262400 0.730200
vn 0.886200 0.387900 -0.253500
vn -0.091600 0.761000 0.642200
vn -0.409200 0.816000 -0.408300
vn -0.310600 0.897700 0.312500
vn 0.368800 0.928100 -0.050100
vn -0.531000 0.424800 -0.733200
vn -0.890800 0.378800 0.250900
vn 0.091600 0.761000 -0.642200
vn 0.479500 0.839200 0.256600
vn 0.508400 0.854000 -0.110400
vn -0.306900 0.895000 0.323700
vn 0.232600 -0.026000 0.972200
vn 0.642200 0.761100 -0.091600
vn -0.260600 0.417300 0.870600
vn 0.284100 0.802700 -0.524400
vn -0.306900 0.895000 -0.323700
vn 0.165500 0.919100 0.357500
vn 0.730200 0.262400 -0.630800
vn -0.250900 0.378800 -0.890800
vn 0.642200 0.761000 0.091600
vn -0.409200 0.816000 0.408400
vn 0.110400 0.854000 0.508400
vn -0.323700 0.895000 -0.306900
vn -0.972200 -0.025900 0.232600
vn 0.091600 0.761100 0.642200
vn -0.870600 0.417300 -0.260500
s off
f 2/1/1 3/2/1 4/3/1
f 6/4/2 2/5/2 1/6/2
f 7/7/3 3/2/3 2/5/3
f 8/8/4 4/3/4 3/2/4
f 8/8/5 7/7/5 6/9/5
f 10/10/6 11/11/6 12/3/6
f 8/8/5 5/12/5 14/13/7
f 5/14/2 1/6/2 15/15/2
f 1/16/1 4/3/1 16/17/1
f 4/3/4 8/8/4 13/18/4
f 14/13/8 10/12/9 9/8/5
f 16/17/1 12/3/1 11/16/10
f 13/18/4 9/8/4 12/3/4
f 11/6/11 17/19/12 18/20/13
f 10/14/14 19/21/14 17/19/14
f 14/13/15 20/22/16 19/21/17
f 15/15/18 18/20/18 20/22/18
f 18/20/2 17/19/2 19/21/2
f 22/1/1 23/2/1 24/3/1
f 26/4/2 22/5/2 21/6/2
f 27/7/3 23/2/3 22/5/3
f 28/8/4 24/3/4 23/2/4
f 25/10/6 21/11/6 24/3/6
f 29/23/19 30/24/20 31/24/21
f 33/25/22 34/26/23 31/24/24
f 31/24/25 34/26/26 35/27/27
f 31/24/28 36/28/29 37/29/30
f 38/30/31 39/30/32 34/26/33
f 40/31/34 41/32/35 39/30/36
f 39/30/37 41/32/38 42/33/39
f 39/30/40 43/34/41 35/27/42
f 44/35/43 45/35/44 41/32/45
f 46/36/46 47/36/47 45/35/48
f 45/35/49 47/36/50 48/37/51
f 45/35/52 49/38/53 42/33/54
f 46/36/55 50/39/56 51/39/57
f 29/23/58 32/40/59 51/39/60
f 51/39/61 32/40/62 37/29/63
f 51/39/64 52/41/65 48/37/66
f 53/42/67 54/43/68 55/44/69
f 57/45/70 58/46/71 55/44/72
f 55/44/73 58/46/74 59/47/75
f 55/44/76 60/48/77 61/49/78
f 59/47/79 58/46/80 63/50/81
f 63/50/82 58/46/83 57/45/84
f 61/49/85 60/48/86 66/51/87
f 66/51/88 60/48/89 59/47/90
f 53/42/91 56/52/92 68/53/93
f 68/53/94 56/52/95 61/49/96
f 57/45/97 54/43/98 69/54/99
f 69/54/100 54/43/101 53/42/102
f 28/8/5 27/7/5 30/55/103
f 27/7/5 26/9/5 38/56/104
f 26/9/5 25/12/5 44/57/105
f 25/12/5 28/8/5 50/58/106
f 71/59/107 67/59/108 68/53/109
f 72/54/110 73/60/111 64/60/112
f 72/54/113 69/54/114 67/59/115
f 75/51/116 66/51/117 62/61/118
f 76/62/119 65/62/120 66/51/121
f 74/61/122 62/61/123 63/50/124
f 73/60/125 77/50/126 63/50/127
f 70/53/128 68/53/129 65/62/130
f 78/63/131 79/64/132 74/61/133
f 36/28/134 35/27/135 79/64/136
f 80/65/137 81/66/138 73/60/139
f 52/41/140 37/29/141 81/66/142
f 76/62/143 82/67/144 83/68/145
f 82/67/146 42/33/147 49/38/148
f 71/59/149 84/69/150 80/65/151
f 84/69/152 48/37/153 52/41/154
f 74/61/155 79/64/156 85/70/157
f 79/64/158 35/27/159 43/34/160
f 83/68/161 84/69/162 71/59/163
f 49/38/164 48/37/165 84/69/166
f 73/60/167 81/66/168 78/63/169
f 81/66/170 37/29/171 36/28/172
f 85/70/173 82/67/174 76/62/175
f 43/34/176 42/33/177 82/67/178
f 1/16/1 2/1/1 4/3/1
f 5/14/2 6/4/2 1/6/2
f 6/4/3 7/7/3 2/5/3
f 7/7/4 8/8/4 3/2/4
f 5/12/5 8/8/5 6/9/5
f 9/8/6 10/10/6 12/3/6
f 13/18/5 8/8/5 14/13/179
f 14/13/2 5/14/2 15/15/2
f 15/15/180 1/16/1 16/17/1
f 16/17/4 4/3/4 13/18/4
f 13/18/5 14/13/181 9/8/5
f 15/15/182 16/17/1 11/16/183
f 16/17/4 13/18/4 12/3/4
f 15/15/184 11/6/185 18/20/186
f 11/6/14 10/14/14 17/19/14
f 10/14/187 14/13/188 19/21/189
f 14/13/18 15/15/18 20/22/18
f 20/22/2 18/20/2 19/21/2
f 21/16/1 22/1/1 24/3/1
f 25/14/2 26/4/2 21/6/2
f 26/4/3 27/7/3 22/5/3
f 27/7/4 28/8/4 23/2/4
f 28/8/6 25/10/6 24/3/6
f 32/40/190 29/23/191 31/24/192
f 30/24/193 33/25/194 31/24/195
f 36/28/196 31/24/197 35/27/198
f 32/40/199 31/24/200 37/29/201
f 33/25/202 38/30/203 34/26/204
f 38/30/205 40/31/206 39/30/207
f 43/34/208 39/30/209 42/33/210
f 34/26/211 39/30/212 35/27/213
f 40/31/214 44/35/215 41/32/216
f 44/35/217 46/36/218 45/35/219
f 49/38/220 45/35/221 48/37/222
f 41/32/223 45/35/224 42/33/225
f 47/36/226 46/36/227 51/39/228
f 50/39/229 29/23/230 51/39/231
f 52/41/232 51/39/233 37/29/234
f 47/36/235 51/39/236 48/37/237
f 56/52/238 53/42/239 55/44/240
f 54/43/241 57/45/242 55/44/243
f 60/48/244 55/44/245 59/47/246
f 56/52/247 55/44/248 61/49/249
f 62/61/250 59/47/251 63/50/252
f 64/60/253 63/50/254 57/45/255
f 65/62/256 61/49/257 66/51/258
f 62/61/259 66/51/260 59/47/261
f 67/59/262 53/42/263 68/53/264
f 65/62/265 68/53/266 61/49/267
f 64/60/268 57/45/269 69/54/270
f 67/59/271 69/54/272 53/42/273
f 27/7/5 33/25/274 30/55/275
f 30/55/276 29/23/277 28/8/5
f 26/9/5 40/31/278 38/56/279
f 38/56/280 33/25/281 27/7/5
f 25/12/5 46/36/282 44/57/283
f 44/57/284 40/31/285 26/9/5
f 28/8/5 29/23/286 50/58/287
f 50/58/288 46/36/289 25/12/5
f 70/53/290 71/59/291 68/53/292
f 69/54/293 72/54/294 64/60/295
f 71/59/296 72/54/297 67/59/298
f 74/61/299 75/51/300 62/61/301
f 75/51/302 76/62/303 66/51/304
f 77/50/305 74/61/306 63/50/307
f 64/60/308 73/60/309 63/50/310
f 76/62/311 70/53/312 65/62/313
f 77/50/314 78/63/315 74/61/316
f 78/63/317 36/28/318 79/64/319
f 72/54/320 80/65/321 73/60/322
f 80/65/323 52/41/324 81/66/325
f 70/53/326 76/62/327 83/68/328
f 83/68/329 82/67/330 49/38/331
f 72/54/332 71/59/333 80/65/334
f 80/65/335 84/69/336 52/41/337
f 75/51/338 74/61/339 85/70/340
f 85/70/341 79/64/342 43/34/343
f 70/53/344 83/68/345 71/59/346
f 83/68/347 49/38/348 84/69/349
f 77/50/350 73/60/351 78/63/352
f 78/63/353 81/66/354 36/28/355
f 75/51/356 85/70/357 76/62/358
f 85/70/359 43/34/360 82/67/361
