# Blender v2.76 (sub 0) OBJ File: ''
# www.blender.org
o Default.001
v 3.000000 -0.050000 -2.000000
v 2.000000 -0.050000 -2.000000
v 2.000000 -0.050000 -3.000000
v 3.000000 -0.050000 -3.000000
v 3.000000 0.050000 -2.000000
v 2.000000 0.050000 -2.000000
v 2.000000 0.050000 -3.000000
v 3.000000 0.050000 -3.000000
v -2.000000 -0.050000 -2.000000
v -3.000000 -0.050000 -2.000000
v -3.000000 -0.050000 -3.000000
v -2.000000 -0.050000 -3.000000
v -2.000000 0.050000 -2.000000
v -3.000000 0.050000 -2.000000
v -3.000000 0.050000 -3.000000
v -2.000000 0.050000 -3.000000
v 0.000000 0.050000 -2.000000
v 0.000000 0.050000 -3.000000
v 0.000000 -0.050000 -3.000000
v 0.000000 -0.050000 -2.000000
v -0.518542 0.037000 -2.210000
v -1.198540 0.037000 -2.210000
v -1.198540 0.037000 -2.890000
v -0.518542 0.037000 -2.890000
v -0.518542 0.457000 -2.210000
v -1.198540 0.457000 -2.210000
v -1.198540 0.457000 -2.890000
v -0.518542 0.457000 -2.890000
v -0.598442 1.616500 -2.289900
v -1.118640 1.616500 -2.289900
v -0.598442 1.616500 -2.810100
v -1.118640 1.616500 -2.810100
v -1.073040 1.694499 -2.764500
v -0.644042 1.694499 -2.764500
v -1.073040 1.694500 -2.335500
v -0.644042 1.694500 -2.335500
v 2.290000 0.037000 -2.140000
v 1.610000 0.037000 -2.140000
v 1.610000 0.037000 -2.820000
v 2.290000 0.037000 -2.820000
v 2.290000 0.457000 -2.140000
v 1.610000 0.457000 -2.140000
v 1.610000 0.457000 -2.820000
v 2.290000 0.457000 -2.820000
v 2.290000 1.206500 -2.140000
v 1.610000 0.826500 -2.140000
v 2.290000 1.206500 -2.820000
v 1.610000 0.826500 -2.820000
v -1.860000 0.037000 -2.180000
v -2.540000 0.037000 -2.180000
v -2.540000 0.037000 -2.860000
v -1.860000 0.037000 -2.860000
v -2.540000 0.457000 -2.180000
v -1.860000 0.457000 -2.180000
v -1.860000 1.151500 -2.180000
v -2.540000 1.151500 -2.180000
v -1.860000 0.457000 -2.860000
v -1.860000 1.151500 -2.860000
v -2.540000 0.457000 -2.860000
v -2.540000 1.151500 -2.860000
v -2.467410 1.151500 -2.787410
v -1.932590 1.151500 -2.787410
v -2.467410 1.151500 -2.252590
v -1.932590 1.151500 -2.252590
v -2.467410 1.632000 -2.252590
v -2.467410 1.631999 -2.787410
v -1.932590 1.632000 -2.252590
v -1.932590 1.631999 -2.787410
v -1.810000 0.457000 -2.130000
v -1.810000 0.457000 -2.910000
v -2.590000 0.457000 -2.130000
v -2.590000 0.457000 -2.910000
v -2.590000 0.037000 -2.910000
v -1.810000 0.037000 -2.910000
v -2.590000 0.037000 -2.130000
v -1.810000 0.037000 -2.130000
v 0.710347 0.049889 -2.301110
v 0.521458 0.044250 -2.235000
v 0.521458 0.037000 -2.490000
v 0.776458 0.044250 -2.490000
v 0.332569 0.049889 -2.301110
v 0.266458 0.044250 -2.490000
v 0.332569 0.049888 -2.678890
v 0.521458 0.044250 -2.745000
v 0.710347 0.049888 -2.678890
v 0.843530 1.311150 -2.301110
v 0.910436 1.313490 -2.490000
v 0.656458 1.316500 -2.490000
v 0.655436 1.313490 -2.235000
v 0.843530 1.311149 -2.678890
v 0.655436 1.313490 -2.745000
v 0.465752 1.311149 -2.678890
v 0.400436 1.313490 -2.490000
v 0.465752 1.311150 -2.301110
v 0.805436 0.903800 -2.235000
v 0.839870 1.099700 -2.235000
v 0.584870 1.099700 -2.150000
v 0.550436 0.903800 -2.150000
v 0.888451 1.247240 -2.235000
v 0.633451 1.247240 -2.150000
v 0.378451 1.247240 -2.235000
v 0.329870 1.099700 -2.235000
v 0.295436 0.903800 -2.235000
v 0.907370 1.304450 -2.235000
v 0.652370 1.304450 -2.150000
v 0.397370 1.304450 -2.235000
v 0.805436 0.903800 -2.745000
v 0.839870 1.099699 -2.745000
v 0.924870 1.099700 -2.490000
v 0.890436 0.903800 -2.490000
v 0.888451 1.247239 -2.745000
v 0.973451 1.247240 -2.490000
v 0.907370 1.304450 -2.745000
v 0.992370 1.304450 -2.490000
v 0.295436 0.903800 -2.745000
v 0.329870 1.099699 -2.745000
v 0.584870 1.099699 -2.830000
v 0.550436 0.903800 -2.830000
v 0.378451 1.247239 -2.745000
v 0.633451 1.247239 -2.830000
v 0.397370 1.304450 -2.745000
v 0.652370 1.304450 -2.830000
v 0.244870 1.099700 -2.490000
v 0.210436 0.903800 -2.490000
v 0.293451 1.247240 -2.490000
v 0.312370 1.304450 -2.490000
v 0.776458 0.066000 -2.235000
v 0.521458 0.066000 -2.150000
v 0.789583 0.137875 -2.235000
v 0.534583 0.137875 -2.150000
v 0.279583 0.137875 -2.235000
v 0.266458 0.066000 -2.235000
v 0.181458 0.066000 -2.490000
v 0.194583 0.137875 -2.490000
v 0.279583 0.137875 -2.745000
v 0.266458 0.066000 -2.745000
v 0.521458 0.066000 -2.830000
v 0.534583 0.137875 -2.830000
v 0.789583 0.137875 -2.745000
v 0.776458 0.066000 -2.745000
v 0.861458 0.066000 -2.490000
v 0.874583 0.137875 -2.490000
v 0.828958 0.295500 -2.235000
v 0.573958 0.295500 -2.150000
v 0.855208 0.497250 -2.235000
v 0.600208 0.497250 -2.150000
v 0.345208 0.497250 -2.235000
v 0.318958 0.295500 -2.235000
v 0.828958 0.701500 -2.235000
v 0.573958 0.701500 -2.150000
v 0.318958 0.701500 -2.235000
v 0.233958 0.295500 -2.490000
v 0.260208 0.497250 -2.490000
v 0.345208 0.497250 -2.745000
v 0.318958 0.295500 -2.745000
v 0.233958 0.701500 -2.490000
v 0.318958 0.701500 -2.745000
v 0.573958 0.295500 -2.830000
v 0.600208 0.497250 -2.830000
v 0.855208 0.497250 -2.745000
v 0.828958 0.295500 -2.745000
v 0.573958 0.701500 -2.830000
v 0.828958 0.701500 -2.745000
v 0.913958 0.295500 -2.490000
v 0.940208 0.497250 -2.490000
v 0.913958 0.701500 -2.490000
vt 0.500000 0.000000
vt 0.500000 0.333333
vt 0.250000 0.333333
vt 0.750000 0.666667
vt 0.750000 0.333333
vt 1.000000 0.333333
vt 0.250000 0.666667
vt 0.000000 0.666667
vt 0.000000 0.333333
vt 0.500000 0.666667
vt 0.500000 1.000000
vt 0.375000 1.000000
vt 0.375000 0.666667
vt 0.375000 0.333333
vt 0.250000 0.000000
vt 1.000000 0.666667
vt 0.250000 1.000000
vt 0.482843 0.683824
vt 0.267157 0.683824
vt 0.482843 0.982843
vt 0.267157 0.982843
vt 0.457966 0.708701
vt 0.292034 0.708701
vt 0.457966 0.957966
vt 0.292034 0.957966
vt 0.375000 0.000000
vt 0.375000 0.166667
vt 0.500000 0.166667
vt 0.375000 0.300000
vt 0.305556 0.925926
vt 0.281250 0.833333
vt 0.375000 0.833333
vt 0.303241 0.735597
vt 0.375000 0.708333
vt 0.438272 0.724280
vt 0.468750 0.833333
vt 0.453704 0.913580
vt 0.281250 0.958333
vt 0.286567 0.951116
vt 0.467741 0.945391
vt 0.468750 0.958333
vt 0.375000 0.958333
vt 0.281250 0.708333
vt 0.250000 0.833333
vt 0.286145 0.714538
vt 0.468750 0.708333
vt 0.375000 0.640000
vt 0.466460 0.717949
vt 0.500000 0.833333
vt 1.000000 0.366667
vt 0.875000 0.366667
vt 1.000000 0.400000
vt 0.875000 0.398333
vt 0.750000 0.398333
vt 0.750000 0.366667
vt 0.625000 0.366667
vt 0.625000 0.398333
vt 0.500000 0.398333
vt 0.500000 0.366667
vt 0.375000 0.366667
vt 0.375000 0.398333
vt 0.250000 0.398177
vt 0.250000 0.366667
vt 0.125000 0.366667
vt 0.125000 0.398333
vt 0.000000 0.400000
vt 0.000000 0.366667
vt 1.000000 0.426667
vt 0.875000 0.426667
vt 1.000000 0.453333
vt 0.875000 0.473333
vt 0.750000 0.453333
vt 0.750000 0.426667
vt 1.000000 0.560000
vt 0.875000 0.560000
vt 0.875000 0.666667
vt 0.750000 0.560000
vt 0.625000 0.426667
vt 0.625000 0.473333
vt 0.500000 0.473149
vt 0.500000 0.426667
vt 0.625000 0.560000
vt 0.625000 0.666667
vt 0.500000 0.560000
vt 0.375000 0.426667
vt 0.375000 0.473333
vt 0.250000 0.474994
vt 0.250000 0.426667
vt 0.375000 0.560000
vt 0.250000 0.560000
vt 0.125000 0.426667
vt 0.125000 0.473333
vt 0.000000 0.453333
vt 0.000000 0.426667
vt 0.125000 0.560000
vt 0.125000 0.666667
vt 0.000000 0.560000
vt 0.250000 0.166667
vt 0.875000 0.333333
vt 0.625000 0.333333
vt 0.125000 0.333333
vn 0.000000 -1.000000 0.000000
vn 0.000000 0.000000 1.000000
vn 0.000000 0.000000 -1.000000
vn 1.000000 0.000000 0.000000
vn 0.000000 1.000000 -0.000000
vn -1.000000 0.000000 0.000000
vn 0.000000 0.000400 1.000000
vn -1.000000 0.000400 -0.000000
vn 0.000000 0.000400 -1.000000
vn 1.000000 0.000400 -0.000000
vn 0.000000 0.000300 1.000000
vn 0.000000 0.003300 1.000000
vn -0.000000 0.005400 1.000000
vn 1.000000 0.003300 -0.000000
vn 1.000000 0.005400 -0.000000
vn -0.000000 0.000300 -1.000000
vn -0.000000 0.006700 -1.000000
vn -0.000000 0.002500 -1.000000
vn -1.000000 0.005400 -0.000000
vn -0.000000 0.005800 -1.000000
vn -1.000000 0.005800 0.000000
vn 0.000000 0.005800 1.000000
vn 1.000000 0.005800 -0.000000
vn -0.999900 0.012800 0.000000
vn -0.999800 0.017900 -0.000000
vn -1.000000 0.008900 0.000000
vn 0.566800 -0.091700 0.818700
vn 0.567400 -0.101100 0.817200
vn 0.699000 -0.150500 0.699100
vn -0.855100 -0.102800 0.508100
vn -0.946000 -0.166900 0.277800
vn -0.959800 -0.280500 -0.013000
vn -0.626100 -0.464700 -0.626100
vn -0.956200 -0.292200 -0.015100
vn -0.686600 -0.239400 -0.686500
vn -0.013000 -0.280500 -0.959800
vn -0.010800 -0.292400 -0.956200
vn 0.794400 -0.105100 -0.598300
vn 0.725100 0.154300 0.671100
vn 0.980800 0.191500 0.037100
vn 0.062100 0.996500 0.055500
vn 0.655500 0.162500 -0.737500
vn 0.025300 0.200200 -0.979400
vn -0.914800 0.205000 0.348000
vn -0.307600 0.250000 -0.918100
vn -0.685000 0.167200 0.709100
vn 0.316200 -0.000100 0.948700
vn 0.316200 -0.000800 0.948700
vn -0.000100 0.016000 0.999900
vn 0.316200 -0.001100 0.948700
vn 0.000200 0.000300 1.000000
vn -0.316200 0.001000 0.948700
vn -0.022300 0.030600 0.999300
vn -0.316200 0.000800 0.948700
vn 0.316200 -0.001000 0.948700
vn -0.000500 0.000200 1.000000
vn -0.003100 0.199600 0.979900
vn -0.026600 0.096800 0.994900
vn -0.028500 0.097000 0.994900
vn -0.139000 0.159300 0.977400
vn 0.948700 -0.002200 -0.316200
vn 1.000000 0.003500 0.000000
vn 0.999800 -0.006000 0.018700
vn 0.948700 -0.003100 -0.316200
vn 1.000000 0.006000 0.000000
vn 0.948700 -0.003100 0.316100
vn 0.948700 -0.002200 0.316200
vn 1.000000 -0.003300 0.000000
vn 0.995800 0.087100 0.029400
vn 0.948700 -0.003100 0.316200
vn -0.316200 0.000800 -0.948700
vn 0.000400 -0.000200 -1.000000
vn -0.008000 -0.019200 -0.999800
vn -0.316200 0.001000 -0.948700
vn -0.000100 0.000100 -1.000000
vn 0.316200 -0.001100 -0.948700
vn 0.316200 -0.000800 -0.948700
vn 0.316200 -0.000100 -0.948700
vn -0.000500 0.000200 -1.000000
vn 0.031100 0.091800 -0.995300
vn 0.316200 -0.001000 -0.948700
vn -0.948700 0.000400 0.316200
vn -0.948700 0.002800 0.316200
vn -0.975100 0.098300 0.198800
vn -0.948700 0.003100 0.316100
vn -0.945400 0.161400 0.283300
vn -0.948700 0.003100 -0.316200
vn -0.948700 0.002800 -0.316200
vn -0.948700 0.000400 -0.316200
vn -0.948700 0.003100 0.316200
vn -1.000000 -0.003900 0.000000
vn -0.994900 0.096700 -0.029300
vn 0.726200 -0.083000 0.682400
vn 0.593700 -0.089200 0.799700
vn 0.393400 0.009600 0.919300
vn 0.391200 -0.026300 0.919900
vn 0.316200 -0.000700 0.948700
vn 0.000200 -0.000100 1.000000
vn -0.143300 -0.012000 0.989600
vn -0.316200 0.000700 0.948700
vn -0.370400 0.018900 0.928700
vn -0.550900 -0.088400 0.829900
vn -0.676000 -0.057600 0.734700
vn -0.704900 -0.089700 0.703600
vn -0.799800 -0.088400 0.593800
vn -0.919300 0.010800 0.393400
vn -0.920000 -0.025100 0.391200
vn -0.948700 0.002200 0.316200
vn -1.000000 -0.003500 -0.000000
vn -0.948700 0.002200 -0.316200
vn -0.929500 -0.016300 -0.368500
vn -0.928700 0.019500 -0.370400
vn -0.829900 -0.088000 -0.550900
vn -0.734700 -0.057600 -0.675900
vn -0.734300 -0.057300 -0.676500
vn -0.593700 -0.088800 -0.799800
vn -0.393400 0.010200 -0.919300
vn -0.316200 0.000700 -0.948700
vn 0.000200 -0.000100 -1.000000
vn -0.153500 -0.018000 -0.988000
vn 0.316200 -0.000700 -0.948700
vn 0.368600 -0.017500 -0.929400
vn 0.370400 0.018300 -0.928700
vn 0.550900 -0.088800 -0.829900
vn 0.676000 -0.057600 -0.734700
vn 0.656100 -0.089200 -0.749400
vn 0.799600 -0.089700 -0.593700
vn 0.919300 0.009000 -0.393400
vn 0.948700 -0.001700 -0.316200
vn 1.000000 0.002700 0.000000
vn 0.988000 -0.019300 -0.153500
vn 0.989600 -0.013200 0.143400
vn 0.948700 -0.001700 0.316200
vn 0.928700 0.017700 0.370500
vn 0.829800 -0.089200 0.551000
vn 0.734700 -0.057600 0.675900
vn 0.316200 -0.000600 0.948700
vn 0.002900 -0.013700 0.999900
vn 0.316200 -0.000200 0.948700
vn 0.011200 -0.021900 0.999700
vn -0.316200 0.000300 0.948700
vn -0.316200 0.000600 0.948700
vn 0.316200 0.000400 0.948700
vn -0.316200 0.000100 0.948700
vn -0.316200 -0.000400 0.948700
vn -0.948700 0.001700 0.316200
vn -0.982000 0.091600 0.165300
vn -0.948700 0.000100 0.316200
vn -1.000000 0.000300 0.000600
vn -0.948700 0.000100 -0.316200
vn -0.948700 0.001700 -0.316200
vn -0.948700 -0.001200 0.316200
vn -1.000000 0.001100 -0.000000
vn -0.999200 0.028600 -0.028000
vn -0.948700 -0.001200 -0.316200
vn -0.316200 0.000600 -0.948700
vn -0.000300 0.000100 -1.000000
vn -0.316200 0.000300 -0.948700
vn -0.000400 -0.000000 -1.000000
vn 0.316200 -0.000200 -0.948700
vn 0.316200 -0.000600 -0.948700
vn -0.316200 -0.000400 -0.948700
vn -0.000300 -0.001100 -1.000000
vn -0.316200 0.000100 -0.948700
vn 0.316200 0.000400 -0.948700
vn 0.948700 -0.002000 -0.316200
vn 1.000000 0.001700 0.000100
vn 0.948700 -0.000200 -0.316200
vn 1.000000 -0.000100 -0.000000
vn 0.948700 -0.000100 0.316200
vn 0.948700 -0.002000 0.316200
vn 0.948700 0.001200 -0.316200
vn 0.994200 0.046600 -0.097300
vn 0.948700 -0.000300 -0.316200
vn 0.948700 -0.000300 0.316200
vn 0.948700 0.001200 0.316200
vn -1.000000 0.003300 0.000000
vn 0.697100 -0.157700 0.699400
vn -0.797700 -0.204300 0.567400
vn -0.015100 -0.292200 -0.956200
vn 0.792700 -0.114100 -0.598800
vn 0.232000 0.286500 0.929600
vn -0.007500 0.212000 0.977300
vn 0.732200 0.139800 0.666500
vn -0.666300 0.142600 0.731900
vn 0.670400 0.140200 -0.728700
vn -0.728300 0.143000 -0.670200
vn 0.570300 -0.065600 0.818800
vn 0.153500 -0.018000 0.988000
vn -0.368500 -0.016900 0.929500
vn -0.426400 -0.009300 0.904500
vn -0.855300 -0.076800 0.512400
vn -0.988000 -0.016700 0.153500
vn -0.989600 -0.010800 -0.143400
vn -0.904500 -0.009300 -0.426400
vn -0.477100 -0.028500 -0.878400
vn -0.391200 -0.025700 -0.920000
vn 0.143400 -0.012000 -0.989600
vn 0.426400 -0.009300 -0.904500
vn 0.794800 -0.078700 -0.601700
vn 0.919900 -0.027000 -0.391200
vn 0.929400 -0.018100 0.368500
vn 0.904500 -0.009300 0.426400
s 1
f 2/1/1 3/2/1 4/3/1
f 6/4/2 2/5/2 1/6/2
f 8/7/3 4/3/3 3/2/3
f 5/8/4 1/9/4 4/3/4
f 8/7/5 7/10/5 6/11/5
f 10/1/1 11/2/1 12/3/1
f 14/4/2 10/5/2 9/6/2
f 15/10/6 11/2/6 10/5/6
f 16/7/3 12/3/3 11/2/3
f 16/7/5 15/10/5 14/11/5
f 17/12/5 18/13/5 16/7/5
f 18/13/3 19/14/3 12/3/3
f 19/14/1 20/15/1 9/15/1
f 20/15/2 17/12/2 13/16/2
f 6/11/5 7/10/5 18/13/5
f 7/10/3 3/2/3 19/14/3
f 3/2/1 2/1/1 20/15/1
f 2/1/2 6/4/2 17/12/2
f 22/1/1 23/2/1 24/3/1
f 26/4/7 22/5/2 21/6/2
f 27/10/8 23/2/6 22/5/6
f 28/7/9 24/3/3 23/2/3
f 28/7/10 25/8/10 21/9/4
f 25/17/11 29/17/12 30/11/13
f 28/7/10 31/7/14 29/17/15
f 27/10/16 32/10/17 31/7/18
f 27/10/8 26/11/8 30/11/19
f 32/10/17 33/18/20 34/19/20
f 30/11/19 35/20/21 33/18/21
f 30/11/13 29/17/12 36/21/22
f 29/17/15 31/7/14 34/19/23
f 34/19/5 33/18/5 35/20/5
f 38/1/1 39/2/1 40/3/1
f 42/4/2 38/5/2 37/6/2
f 43/10/6 39/2/6 38/5/6
f 44/7/3 40/3/3 39/2/3
f 44/7/4 41/8/4 37/9/4
f 41/17/2 45/17/2 46/11/2
f 44/7/4 47/7/4 45/17/4
f 44/7/3 43/10/3 48/10/3
f 43/10/6 42/11/6 46/11/24
f 47/7/25 48/10/26 46/11/24
f 50/1/1 51/2/1 52/3/1
f 54/17/2 55/17/2 56/11/2
f 57/7/4 58/7/4 55/17/4
f 59/10/3 60/10/3 58/7/3
f 59/10/6 53/11/6 56/11/6
f 60/10/5 61/22/5 62/23/5
f 56/11/5 63/24/5 61/22/5
f 55/17/5 64/25/5 63/24/5
f 58/7/5 62/23/5 64/25/5
f 63/24/6 65/24/6 66/22/6
f 64/25/2 67/25/2 65/24/2
f 64/25/4 62/23/4 68/23/4
f 61/22/3 66/22/3 68/23/3
f 68/23/5 66/22/5 65/24/5
f 57/7/5 54/8/5 69/8/5
f 54/16/5 53/4/5 71/4/5
f 59/10/5 72/10/5 71/4/5
f 57/7/5 70/7/5 72/10/5
f 51/2/1 73/2/1 74/3/1
f 51/2/1 50/5/1 75/5/1
f 49/6/1 76/6/1 75/5/1
f 52/3/1 74/3/1 76/9/1
f 71/4/2 75/5/2 76/6/2
f 72/10/6 73/2/6 75/5/6
f 70/7/3 74/3/3 73/2/3
f 69/8/4 76/9/4 74/3/4
f 77/15/27 78/26/28 79/27/29
f 81/1/30 82/28/31 79/27/32
f 79/27/33 82/28/34 83/2/35
f 79/27/36 84/29/37 85/3/38
f 86/30/39 87/31/40 88/32/41
f 90/33/42 91/34/43 88/32/41
f 88/32/41 91/34/43 92/35/44
f 88/32/41 93/36/45 94/37/46
f 95/17/47 96/38/48 97/12/49
f 96/38/48 99/39/50 100/12/51
f 97/12/49 100/12/51 101/40/52
f 98/12/53 97/12/49 102/41/54
f 99/39/50 104/38/55 105/12/56
f 86/30/39 89/42/57 105/12/58
f 105/12/59 89/42/60 94/37/46
f 100/12/51 105/12/56 106/41/52
f 108/43/61 109/44/62 110/44/63
f 111/45/64 112/44/65 109/44/62
f 109/44/62 112/44/65 99/39/66
f 110/44/63 109/44/62 96/38/67
f 113/43/64 114/44/68 112/44/65
f 90/33/42 87/31/40 114/44/69
f 114/44/69 87/31/40 86/30/39
f 112/44/65 114/44/68 104/38/70
f 116/46/71 117/13/72 118/47/73
f 119/48/74 120/13/75 117/13/72
f 120/13/75 111/45/76 108/43/77
f 117/13/72 108/43/77 107/7/78
f 121/46/74 122/13/79 120/13/75
f 92/35/44 91/34/43 122/13/80
f 122/13/80 91/34/43 90/33/42
f 122/13/79 113/43/81 111/45/76
f 103/11/82 102/41/83 123/49/84
f 102/41/83 101/40/85 125/49/86
f 125/49/86 119/48/87 116/46/88
f 123/49/84 116/46/88 115/10/89
f 101/40/85 106/41/90 126/49/91
f 94/37/46 93/36/45 126/49/92
f 126/49/92 93/36/45 92/35/44
f 126/49/91 121/46/87 119/48/87
f 77/6/93 127/50/94 128/51/95
f 127/50/96 129/52/97 130/53/98
f 128/51/99 130/53/98 131/54/100
f 128/51/101 132/55/102 81/5/103
f 81/5/104 132/55/105 133/56/106
f 132/55/107 131/54/108 134/57/109
f 134/57/109 135/58/110 136/59/111
f 133/56/112 136/59/113 83/2/114
f 83/2/115 136/59/116 137/60/117
f 135/58/118 138/61/119 137/60/120
f 138/61/119 139/62/121 140/63/122
f 137/60/123 140/63/124 85/3/125
f 85/3/126 140/63/127 141/64/128
f 139/62/129 142/65/130 141/64/131
f 141/64/132 142/65/130 129/66/133
f 141/64/134 127/67/135 77/9/136
f 129/52/97 143/68/137 144/69/138
f 143/68/137 145/70/139 146/71/140
f 144/69/138 146/71/140 147/72/141
f 130/53/98 144/69/138 148/73/142
f 149/74/143 150/75/2 146/71/140
f 95/16/47 98/76/53 150/75/2
f 98/76/53 103/4/144 151/77/145
f 150/75/2 151/77/145 147/72/141
f 131/54/108 148/73/146 152/78/147
f 148/73/146 147/72/148 153/79/149
f 153/79/149 154/80/150 155/81/151
f 152/78/147 155/81/151 135/58/110
f 151/77/152 156/82/153 153/79/149
f 103/4/82 124/83/154 156/82/153
f 156/82/153 124/83/154 115/10/89
f 153/79/149 156/82/153 157/84/155
f 155/81/156 158/85/157 138/61/119
f 154/80/158 159/86/159 158/85/157
f 159/86/159 160/87/160 161/88/161
f 158/85/157 161/88/161 139/62/121
f 154/80/158 157/84/162 162/89/163
f 157/84/162 115/10/164 118/47/73
f 162/89/163 118/47/73 107/7/78
f 159/86/159 162/89/163 163/90/165
f 161/88/166 164/91/167 142/65/130
f 160/87/168 165/92/169 164/91/167
f 164/91/167 165/92/169 145/93/170
f 142/65/130 164/91/167 143/94/171
f 160/87/168 163/90/172 166/95/173
f 163/90/172 107/7/174 110/96/63
f 110/96/63 95/8/175 149/97/176
f 166/95/173 149/97/176 145/93/170
f 1/15/1 2/1/1 4/3/1
f 5/16/2 6/4/2 1/6/2
f 7/10/3 8/7/3 3/2/3
f 8/7/4 5/8/4 4/3/4
f 5/17/5 8/7/5 6/11/5
f 9/15/1 10/1/1 12/3/1
f 13/16/2 14/4/2 9/6/2
f 14/4/6 15/10/6 10/5/6
f 15/10/3 16/7/3 11/2/3
f 13/17/5 16/7/5 14/11/5
f 13/17/5 17/12/5 16/7/5
f 16/7/3 18/13/3 12/3/3
f 12/3/1 19/14/1 9/15/1
f 9/15/2 20/15/2 13/16/2
f 17/12/5 6/11/5 18/13/5
f 18/13/3 7/10/3 19/14/3
f 19/14/1 3/2/1 20/15/1
f 20/15/2 2/1/2 17/12/2
f 21/15/1 22/1/1 24/3/1
f 25/16/11 26/4/7 21/6/2
f 26/4/8 27/10/8 22/5/6
f 27/10/16 28/7/9 23/2/3
f 24/3/4 28/7/10 21/9/4
f 26/11/7 25/17/11 30/11/13
f 25/17/10 28/7/10 29/17/15
f 28/7/9 27/10/16 31/7/18
f 32/10/177 27/10/8 30/11/19
f 31/7/18 32/10/17 34/19/20
f 32/10/177 30/11/19 33/18/21
f 35/20/22 30/11/13 36/21/22
f 36/21/23 29/17/15 34/19/23
f 36/21/5 34/19/5 35/20/5
f 37/15/1 38/1/1 40/3/1
f 41/16/2 42/4/2 37/6/2
f 42/4/6 43/10/6 38/5/6
f 43/10/3 44/7/3 39/2/3
f 40/3/4 44/7/4 37/9/4
f 42/11/2 41/17/2 46/11/2
f 41/17/4 44/7/4 45/17/4
f 47/7/3 44/7/3 48/10/3
f 48/10/26 43/10/6 46/11/24
f 45/17/25 47/7/25 46/11/24
f 49/15/1 50/1/1 52/3/1
f 53/11/2 54/17/2 56/11/2
f 54/17/4 57/7/4 55/17/4
f 57/7/3 59/10/3 58/7/3
f 60/10/6 59/10/6 56/11/6
f 58/7/5 60/10/5 62/23/5
f 60/10/5 56/11/5 61/22/5
f 56/11/5 55/17/5 63/24/5
f 55/17/5 58/7/5 64/25/5
f 61/22/6 63/24/6 66/22/6
f 63/24/2 64/25/2 65/24/2
f 67/25/4 64/25/4 68/23/4
f 62/23/3 61/22/3 68/23/3
f 67/25/5 68/23/5 65/24/5
f 70/7/5 57/7/5 69/8/5
f 69/16/5 54/16/5 71/4/5
f 53/4/5 59/10/5 71/4/5
f 59/10/5 57/7/5 72/10/5
f 52/3/1 51/2/1 74/3/1
f 73/2/1 51/2/1 75/5/1
f 50/5/1 49/6/1 75/5/1
f 49/9/1 52/3/1 76/9/1
f 69/16/2 71/4/2 76/6/2
f 71/4/6 72/10/6 75/5/6
f 72/10/3 70/7/3 73/2/3
f 70/7/4 69/8/4 74/3/4
f 80/98/178 77/15/27 79/27/29
f 78/26/179 81/1/30 79/27/32
f 84/29/180 79/27/33 83/2/35
f 80/98/181 79/27/36 85/3/38
f 89/42/182 86/30/39 88/32/41
f 87/31/40 90/33/42 88/32/41
f 93/36/45 88/32/41 92/35/44
f 89/42/183 88/32/41 94/37/46
f 98/12/53 95/17/47 97/12/49
f 97/12/49 96/38/48 100/12/51
f 102/41/54 97/12/49 101/40/52
f 103/11/144 98/12/53 102/41/54
f 100/12/51 99/39/50 105/12/56
f 104/38/184 86/30/39 105/12/58
f 106/41/185 105/12/59 94/37/46
f 101/40/52 100/12/51 106/41/52
f 107/7/174 108/43/61 110/44/63
f 108/43/61 111/45/64 109/44/62
f 96/38/67 109/44/62 99/39/66
f 95/17/175 110/44/63 96/38/67
f 111/45/64 113/43/64 112/44/65
f 113/43/186 90/33/42 114/44/69
f 104/38/184 114/44/69 86/30/39
f 99/39/66 112/44/65 104/38/70
f 115/10/164 116/46/71 118/47/73
f 116/46/71 119/48/74 117/13/72
f 117/13/72 120/13/75 108/43/77
f 118/47/73 117/13/72 107/7/78
f 119/48/74 121/46/74 120/13/75
f 121/46/187 92/35/44 122/13/80
f 113/43/186 122/13/80 90/33/42
f 120/13/75 122/13/79 111/45/76
f 124/49/154 103/11/82 123/49/84
f 123/49/84 102/41/83 125/49/86
f 123/49/84 125/49/86 116/46/88
f 124/49/154 123/49/84 115/10/89
f 125/49/86 101/40/85 126/49/91
f 106/41/185 94/37/46 126/49/92
f 121/46/187 126/49/92 92/35/44
f 125/49/86 126/49/91 119/48/87
f 78/99/188 77/6/93 128/51/95
f 128/51/189 127/50/96 130/53/98
f 132/55/190 128/51/99 131/54/100
f 78/99/191 128/51/101 81/5/103
f 82/100/192 81/5/104 133/56/106
f 133/56/193 132/55/107 134/57/109
f 133/56/194 134/57/109 136/59/111
f 82/100/195 133/56/112 83/2/114
f 84/29/196 83/2/115 137/60/117
f 136/59/197 135/58/118 137/60/120
f 137/60/198 138/61/119 140/63/122
f 84/29/199 137/60/123 85/3/125
f 80/101/200 85/3/126 141/64/128
f 140/63/201 139/62/129 141/64/131
f 127/67/202 141/64/132 129/66/133
f 80/101/203 141/64/134 77/9/136
f 130/53/98 129/52/97 144/69/138
f 144/69/138 143/68/137 146/71/140
f 148/73/142 144/69/138 147/72/141
f 131/54/100 130/53/98 148/73/142
f 145/70/139 149/74/143 146/71/140
f 149/74/143 95/16/47 150/75/2
f 150/75/2 98/76/53 151/77/145
f 146/71/140 150/75/2 147/72/141
f 134/57/109 131/54/108 152/78/147
f 152/78/147 148/73/146 153/79/149
f 152/78/147 153/79/149 155/81/151
f 134/57/109 152/78/147 135/58/110
f 147/72/148 151/77/152 153/79/149
f 151/77/152 103/4/82 156/82/153
f 157/84/155 156/82/153 115/10/89
f 154/80/150 153/79/149 157/84/155
f 135/58/118 155/81/156 138/61/119
f 155/81/156 154/80/158 158/85/157
f 158/85/157 159/86/159 161/88/161
f 138/61/119 158/85/157 139/62/121
f 159/86/159 154/80/158 162/89/163
f 162/89/163 157/84/162 118/47/73
f 163/90/165 162/89/163 107/7/78
f 160/87/160 159/86/159 163/90/165
f 139/62/129 161/88/166 142/65/130
f 161/88/166 160/87/168 164/91/167
f 143/94/171 164/91/167 145/93/170
f 129/66/133 142/65/130 143/94/171
f 165/92/169 160/87/168 166/95/173
f 166/95/173 163/90/172 110/96/63
f 166/95/173 110/96/63 149/97/176
f 165/92/169 166/95/173 145/93/170
