# Blender v2.76 (sub 0) OBJ File: ''
# www.blender.org
o Default.019
v -2.000000 -0.050000 -1.000000
v -3.000000 -0.050000 -1.000000
v -3.000000 -0.050000 -2.000000
v -2.000000 -0.050000 -2.000000
v -3.000000 0.050000 -1.000000
v -3.000000 0.050000 -2.000000
v -2.000000 0.050000 -2.000000
v -2.000000 0.050000 -1.000000
v -2.000000 -0.050000 1.000000
v -3.000000 -0.050000 1.000000
v -3.000000 -0.050000 0.000000
v -2.000000 -0.050000 0.000000
v -3.000000 0.050000 1.000000
v -3.000000 0.050000 -0.000000
v -2.000000 0.050000 1.000000
v -2.000000 0.050000 -0.000000
v -1.000000 0.050000 -1.000000
v -1.000000 -0.050000 -1.000000
v -1.000000 0.050000 -0.000000
v -1.000000 0.050000 1.000000
v -1.000000 -0.050000 0.000000
v -1.000000 -0.050000 1.000000
v 0.000000 -0.050000 -1.000000
v 0.000000 -0.050000 0.000000
v 0.000000 0.050000 -1.000000
v 0.000000 0.050000 -0.000000
v 0.000000 0.050000 1.000000
v 0.000000 -0.050000 1.000000
v -3.000000 -0.050000 3.000000
v -3.000000 0.050000 3.000000
v -2.000000 -0.050000 3.000000
v -1.000000 -0.050000 3.000000
v -1.000000 0.050000 3.000000
v -2.000000 0.050000 3.000000
v 3.000000 -0.050000 3.000000
v 2.000000 -0.050000 3.000000
v 2.000000 -0.050000 2.000000
v 3.000000 -0.050000 2.000000
v 3.000000 0.050000 3.000000
v 2.000000 0.050000 3.000000
v 2.000000 0.050000 2.000000
v 3.000000 0.050000 2.000000
v 2.000000 -0.050000 1.000000
v 3.000000 -0.050000 1.000000
v 2.000000 0.050000 1.000000
v 3.000000 0.050000 1.000000
v -3.320000 0.330000 -1.862330
v -3.320000 0.070000 -1.862330
v -5.856470 0.070000 -0.019473
v -5.856470 0.330000 -0.019473
v -4.887630 0.070000 2.962330
v -4.887630 0.330000 2.962330
v -1.752370 0.070000 2.962330
v -1.752370 0.330000 2.962330
v -0.783528 0.070000 -0.019473
v -0.783528 0.330000 -0.019473
v -3.320000 0.590000 -1.862330
v -5.856470 0.590000 -0.019473
v -4.887630 0.590000 2.962330
v -1.752370 0.590000 2.962330
v -0.783528 0.590000 -0.019473
v -2.703940 0.070000 1.621000
v -2.323200 0.070000 0.449190
v -3.936060 0.070000 1.621000
v -4.316800 0.070000 0.449190
v -3.320000 0.070000 -0.275028
v -3.320000 0.590000 -0.275028
v -4.316800 0.590000 0.449190
v -4.316800 0.330000 0.449190
v -3.320000 0.330000 -0.275028
v -2.323200 0.590000 0.449190
v -2.323200 0.330000 0.449190
v -2.703940 0.590000 1.621000
v -2.703940 0.330000 1.621000
v -3.936060 0.590000 1.621000
v -3.936060 0.330000 1.621000
v -2.568000 0.590000 1.812620
v -2.103250 0.590000 0.382238
v -2.432070 0.590000 2.004240
v -2.296130 0.590000 2.195850
v -1.663340 0.590000 0.248334
v -1.883290 0.590000 0.315286
v -2.160190 0.590000 2.387470
v -2.024250 0.590000 2.579090
v -1.223430 0.590000 0.114430
v -1.443390 0.590000 0.181382
v -1.888310 0.590000 2.770710
v -1.003480 0.590000 0.047479
v -3.320000 0.590000 -0.501785
v -3.320000 0.590000 -0.955300
v -3.320000 0.590000 -0.728542
v -3.320000 0.590000 -1.408810
v -3.320000 0.590000 -1.182060
v -3.320000 0.590000 -1.635570
v -4.536750 0.590000 0.382238
v -4.976660 0.590000 0.248334
v -4.756710 0.590000 0.315286
v -5.416570 0.590000 0.114430
v -5.196610 0.590000 0.181382
v -5.636520 0.590000 0.047479
v -4.072000 0.590000 1.812620
v -4.343870 0.590000 2.195850
v -4.207930 0.590000 2.004240
v -4.615750 0.590000 2.579090
v -4.479810 0.590000 2.387470
v -4.751690 0.590000 2.770710
v -1.003480 0.290000 0.047479
v -1.888310 0.290000 2.770710
v -3.320000 0.290000 -1.635570
v -5.636520 0.290000 0.047479
v -4.751690 0.290000 2.770710
v -4.072000 0.290000 1.812620
v -2.568000 0.290000 1.812620
v -4.536750 0.290000 0.382238
v -3.320000 0.290000 -0.501785
v -2.103250 0.290000 0.382238
v -3.320000 0.290000 -0.955300
v -4.976660 0.290000 0.248334
v -1.663340 0.290000 0.248334
v -2.296130 0.290000 2.195850
v -4.343870 0.290000 2.195850
v -4.479810 0.290000 2.387470
v -5.196610 0.290000 0.181382
v -2.160190 0.290000 2.387470
v -1.443390 0.290000 0.181382
v -3.320000 0.290000 -1.182060
v -1.883290 0.290000 0.315286
v -2.432070 0.290000 2.004240
v -3.320000 0.290000 -0.728542
v -4.756710 0.290000 0.315286
v -4.207930 0.290000 2.004240
v -4.615750 0.290000 2.579090
v -2.024250 0.290000 2.579090
v -5.416570 0.290000 0.114430
v -3.320000 0.290000 -1.408810
v -1.223430 0.290000 0.114430
vt 0.500000 0.000000
vt 0.500000 0.333333
vt 0.250000 0.333333
vt 0.500000 0.666667
vt 0.750000 0.333333
vt 0.250000 0.666667
vt 0.000000 0.666667
vt 0.000000 0.333333
vt 0.500000 1.000000
vt 0.250000 1.000000
vt 0.250000 0.000000
vt 0.750000 0.666667
vt 1.000000 0.333333
vt 1.000000 0.666667
vt 0.000000 0.000000
vt 0.200000 0.000000
vt 0.200000 0.250000
vt 0.400000 0.000000
vt 0.400000 0.250000
vt 0.600000 0.000000
vt 0.600000 0.250000
vt 0.800000 0.000000
vt 0.800000 0.250000
vt 1.000000 0.000000
vt 1.000000 0.250000
vt 0.000000 0.250000
vt 0.200000 0.500000
vt 0.400000 0.500000
vt 0.600000 0.500000
vt 0.800000 0.500000
vt 0.952254 0.603054
vt 0.672746 0.512236
vt 0.620429 0.351221
vt 0.500000 0.750000
vt 0.330699 0.750000
vt 0.672746 0.987764
vt 0.620429 1.148780
vt 0.952254 0.896946
vt 1.089220 0.996459
vt 1.089220 0.503541
vt 0.225063 0.826749
vt 0.422746 0.987764
vt 0.702254 0.896946
vt 0.315287 0.797433
vt 0.702254 0.603054
vt 0.315287 0.702567
vt 0.422746 0.512236
vt 0.225063 0.673251
vt 0.250000 0.750000
vt 0.169301 0.750000
vt 0.217589 0.650249
vt 0.334853 0.688350
vt 0.210115 0.627247
vt 0.202641 0.604245
vt 0.373987 0.659918
vt 0.195167 0.581242
vt 0.187693 0.558240
vt 0.413121 0.631486
vt 0.180220 0.535238
vt 0.172746 0.512236
vt 0.452254 0.603054
vt 0.334853 0.811650
vt 0.354420 0.674134
vt 0.373987 0.840082
vt 0.393554 0.645702
vt 0.413121 0.868514
vt 0.432687 0.617270
vt 0.452254 0.896946
vt 0.217589 0.849751
vt 0.202641 0.895755
vt 0.210115 0.872753
vt 0.187693 0.941760
vt 0.195167 0.918758
vt 0.172746 0.987764
vt 0.180220 0.964762
vt 0.145115 0.750000
vt 0.096744 0.750000
vt 0.120930 0.750000
vt 0.048372 0.750000
vt 0.072558 0.750000
vt 0.000000 0.750000
vt 0.024186 0.750000
vt 0.432687 0.882730
vt 0.393554 0.854298
vt 0.354420 0.825866
vt 0.000000 0.500000
vt 1.000000 0.500000
vn 0.000000 -1.000000 0.000000
vn -1.000000 0.000000 0.000000
vn 0.000000 0.000000 -1.000000
vn 1.000000 0.000000 0.000000
vn 0.000000 1.000000 -0.000000
vn 0.000000 0.000000 1.000000
vn -0.587800 -0.000000 -0.809000
vn -0.951100 0.000000 0.309000
vn 0.951100 0.000000 0.309000
vn 0.587800 0.000000 -0.809000
vn 0.587800 0.000000 0.809000
vn -0.587800 0.000000 0.809000
vn -0.951100 0.000000 -0.309000
vn 0.951100 0.000000 -0.309000
s 1
f 2/1/1 3/2/1 4/3/1
f 6/4/2 3/2/2 2/5/2
f 7/6/3 4/3/3 3/2/3
f 7/6/4 8/7/4 1/8/4
f 7/6/5 6/4/5 5/9/5
f 10/1/1 11/2/1 12/3/1
f 14/4/2 11/2/2 10/5/2
f 16/6/5 14/4/5 13/9/5
f 8/10/5 5/9/5 14/4/5
f 2/1/1 1/11/1 12/3/1
f 5/12/2 2/5/2 11/2/2
f 8/7/3 17/7/3 18/8/3
f 16/6/5 19/6/5 17/7/5
f 15/7/5 20/7/5 19/6/5
f 12/3/1 21/3/1 22/8/1
f 1/8/1 18/8/1 21/3/1
f 18/8/1 23/8/1 24/3/1
f 17/7/3 25/7/3 23/8/3
f 19/6/5 26/6/5 25/7/5
f 20/7/5 27/7/5 26/6/5
f 22/8/6 28/8/6 27/7/6
f 21/3/1 24/3/1 28/8/1
f 27/7/4 28/8/4 24/3/4
f 23/8/4 25/7/4 26/6/4
f 13/12/2 10/5/2 29/5/2
f 9/13/1 31/13/1 29/5/1
f 22/8/1 32/8/1 31/8/1
f 20/7/4 33/7/4 32/8/4
f 15/7/5 34/7/5 33/7/5
f 13/12/5 30/12/5 34/14/5
f 30/12/6 29/5/6 31/13/6
f 31/8/6 32/8/6 33/7/6
f 36/1/1 37/2/1 38/3/1
f 40/12/6 36/5/6 35/13/6
f 41/4/2 37/2/2 36/5/2
f 39/7/4 35/8/4 38/3/4
f 42/6/5 41/4/5 40/9/5
f 37/2/1 43/2/1 44/3/1
f 37/2/2 41/4/2 45/4/2
f 42/6/5 46/6/5 45/4/5
f 38/3/4 44/3/4 46/6/4
f 46/6/3 44/3/3 43/2/3
f 48/15/7 49/16/7 50/17/7
f 49/16/8 51/18/8 52/19/8
f 51/18/6 53/20/6 54/21/6
f 53/20/9 55/22/9 56/23/9
f 55/22/10 48/24/10 47/25/10
f 47/26/7 50/17/7 58/27/7
f 50/17/8 52/19/8 59/28/8
f 52/19/6 54/21/6 60/29/6
f 54/21/9 56/23/9 61/30/9
f 61/30/10 56/23/10 47/25/10
f 55/31/1 53/32/1 62/33/1
f 51/34/1 64/35/1 62/33/1
f 49/36/1 65/37/1 64/35/1
f 48/38/1 66/39/1 65/37/1
f 48/38/1 55/31/1 63/40/1
f 68/41/11 69/42/11 70/43/11
f 67/44/12 70/43/12 72/45/12
f 71/46/13 72/45/13 74/47/13
f 73/48/3 74/47/3 76/49/3
f 75/50/14 76/49/14 69/42/14
f 65/37/11 66/39/11 70/43/11
f 70/43/12 66/39/12 63/40/12
f 63/40/13 62/33/13 74/47/13
f 62/33/3 64/35/3 76/49/3
f 64/35/14 65/37/14 69/42/14
f 73/48/5 77/51/5 78/52/5
f 79/53/5 80/54/5 81/55/5
f 83/56/5 84/57/5 85/58/5
f 87/59/5 60/60/5 61/61/5
f 71/46/5 78/52/5 89/62/5
f 82/63/5 81/55/5 90/64/5
f 86/65/5 85/58/5 92/66/5
f 88/67/5 61/61/5 57/68/5
f 89/62/5 95/69/5 68/41/5
f 90/64/5 96/70/5 97/71/5
f 92/66/5 98/72/5 99/73/5
f 57/68/5 58/74/5 100/75/5
f 95/69/5 101/76/5 75/50/5
f 96/70/5 102/77/5 103/78/5
f 98/72/5 104/79/5 105/80/5
f 58/74/5 59/81/5 106/82/5
f 75/50/5 101/76/5 77/51/5
f 102/77/5 80/54/5 79/53/5
f 104/79/5 84/57/5 83/56/5
f 59/81/5 60/60/5 87/59/5
f 88/67/13 107/67/13 108/59/13
f 94/83/12 109/83/12 107/67/12
f 100/75/11 110/75/11 109/83/11
f 106/82/14 111/82/14 110/75/14
f 87/59/3 108/59/3 111/82/3
f 101/76/6 112/76/6 113/51/6
f 95/69/8 114/69/8 112/76/8
f 95/69/7 89/62/7 115/62/7
f 78/52/10 116/52/10 115/62/10
f 77/51/9 113/51/9 116/52/9
f 90/64/7 117/64/7 118/70/7
f 81/55/10 119/55/10 117/64/10
f 81/55/9 80/54/9 120/54/9
f 102/77/6 121/77/6 120/54/6
f 96/70/8 118/70/8 121/77/8
f 105/80/14 122/80/14 123/73/14
f 83/56/3 124/56/3 122/80/3
f 86/65/13 125/65/13 124/56/13
f 93/84/12 126/84/12 125/65/12
f 99/73/11 123/73/11 126/84/11
f 82/63/13 127/63/13 128/53/13
f 91/85/12 129/85/12 127/63/12
f 97/71/11 130/71/11 129/85/11
f 103/78/14 131/78/14 130/71/14
f 79/53/3 128/53/3 131/78/3
f 104/79/6 132/79/6 133/57/6
f 98/72/8 134/72/8 132/79/8
f 98/72/7 92/66/7 135/66/7
f 85/58/10 136/58/10 135/66/10
f 85/58/9 84/57/9 133/57/9
f 113/51/5 128/53/5 127/63/5
f 120/54/5 124/56/5 125/65/5
f 133/57/5 108/59/5 107/67/5
f 116/52/5 127/63/5 129/85/5
f 119/55/5 125/65/5 126/84/5
f 136/58/5 107/67/5 109/83/5
f 129/85/5 130/71/5 114/69/5
f 126/84/5 123/73/5 118/70/5
f 109/83/5 110/75/5 134/72/5
f 130/71/5 131/78/5 112/76/5
f 123/73/5 122/80/5 121/77/5
f 110/75/5 111/82/5 132/79/5
f 112/76/5 131/78/5 128/53/5
f 122/80/5 124/56/5 120/54/5
f 111/82/5 108/59/5 133/57/5
f 1/11/1 2/1/1 4/3/1
f 5/12/2 6/4/2 2/5/2
f 6/4/3 7/6/3 3/2/3
f 4/3/4 7/6/4 1/8/4
f 8/10/5 7/6/5 5/9/5
f 9/11/1 10/1/1 12/3/1
f 13/12/2 14/4/2 10/5/2
f 15/10/5 16/6/5 13/9/5
f 16/6/5 8/10/5 14/4/5
f 11/2/1 2/1/1 12/3/1
f 14/4/2 5/12/2 11/2/2
f 1/8/3 8/7/3 18/8/3
f 8/7/5 16/6/5 17/7/5
f 16/6/5 15/7/5 19/6/5
f 9/8/1 12/3/1 22/8/1
f 12/3/1 1/8/1 21/3/1
f 21/3/1 18/8/1 24/3/1
f 18/8/3 17/7/3 23/8/3
f 17/7/5 19/6/5 25/7/5
f 19/6/5 20/7/5 26/6/5
f 20/7/6 22/8/6 27/7/6
f 22/8/1 21/3/1 28/8/1
f 26/6/4 27/7/4 24/3/4
f 24/3/4 23/8/4 26/6/4
f 30/12/2 13/12/2 29/5/2
f 10/5/1 9/13/1 29/5/1
f 9/8/1 22/8/1 31/8/1
f 22/8/4 20/7/4 32/8/4
f 20/7/5 15/7/5 33/7/5
f 15/14/5 13/12/5 34/14/5
f 34/14/6 30/12/6 31/13/6
f 34/7/6 31/8/6 33/7/6
f 35/11/1 36/1/1 38/3/1
f 39/14/6 40/12/6 35/13/6
f 40/12/2 41/4/2 36/5/2
f 42/6/4 39/7/4 38/3/4
f 39/10/5 42/6/5 40/9/5
f 38/3/1 37/2/1 44/3/1
f 43/2/2 37/2/2 45/4/2
f 41/4/5 42/6/5 45/4/5
f 42/6/4 38/3/4 46/6/4
f 45/4/3 46/6/3 43/2/3
f 47/26/7 48/15/7 50/17/7
f 50/17/8 49/16/8 52/19/8
f 52/19/6 51/18/6 54/21/6
f 54/21/9 53/20/9 56/23/9
f 56/23/10 55/22/10 47/25/10
f 57/86/7 47/26/7 58/27/7
f 58/27/8 50/17/8 59/28/8
f 59/28/6 52/19/6 60/29/6
f 60/29/9 54/21/9 61/30/9
f 57/87/10 61/30/10 47/25/10
f 63/40/1 55/31/1 62/33/1
f 53/32/1 51/34/1 62/33/1
f 51/34/1 49/36/1 64/35/1
f 49/36/1 48/38/1 65/37/1
f 66/39/1 48/38/1 63/40/1
f 67/44/11 68/41/11 70/43/11
f 71/46/12 67/44/12 72/45/12
f 73/48/13 71/46/13 74/47/13
f 75/50/3 73/48/3 76/49/3
f 68/41/14 75/50/14 69/42/14
f 69/42/11 65/37/11 70/43/11
f 72/45/12 70/43/12 63/40/12
f 72/45/13 63/40/13 74/47/13
f 74/47/3 62/33/3 76/49/3
f 76/49/14 64/35/14 69/42/14
f 71/46/5 73/48/5 78/52/5
f 82/63/5 79/53/5 81/55/5
f 86/65/5 83/56/5 85/58/5
f 88/67/5 87/59/5 61/61/5
f 67/44/5 71/46/5 89/62/5
f 91/85/5 82/63/5 90/64/5
f 93/84/5 86/65/5 92/66/5
f 94/83/5 88/67/5 57/68/5
f 67/44/5 89/62/5 68/41/5
f 91/85/5 90/64/5 97/71/5
f 93/84/5 92/66/5 99/73/5
f 94/83/5 57/68/5 100/75/5
f 68/41/5 95/69/5 75/50/5
f 97/71/5 96/70/5 103/78/5
f 99/73/5 98/72/5 105/80/5
f 100/75/5 58/74/5 106/82/5
f 73/48/5 75/50/5 77/51/5
f 103/78/5 102/77/5 79/53/5
f 105/80/5 104/79/5 83/56/5
f 106/82/5 59/81/5 87/59/5
f 87/59/13 88/67/13 108/59/13
f 88/67/12 94/83/12 107/67/12
f 94/83/11 100/75/11 109/83/11
f 100/75/14 106/82/14 110/75/14
f 106/82/3 87/59/3 111/82/3
f 77/51/6 101/76/6 113/51/6
f 101/76/8 95/69/8 112/76/8
f 114/69/7 95/69/7 115/62/7
f 89/62/10 78/52/10 115/62/10
f 78/52/9 77/51/9 116/52/9
f 96/70/7 90/64/7 118/70/7
f 90/64/10 81/55/10 117/64/10
f 119/55/9 81/55/9 120/54/9
f 80/54/6 102/77/6 120/54/6
f 102/77/8 96/70/8 121/77/8
f 99/73/14 105/80/14 123/73/14
f 105/80/3 83/56/3 122/80/3
f 83/56/13 86/65/13 124/56/13
f 86/65/12 93/84/12 125/65/12
f 93/84/11 99/73/11 126/84/11
f 79/53/13 82/63/13 128/53/13
f 82/63/12 91/85/12 127/63/12
f 91/85/11 97/71/11 129/85/11
f 97/71/14 103/78/14 130/71/14
f 103/78/3 79/53/3 131/78/3
f 84/57/6 104/79/6 133/57/6
f 104/79/8 98/72/8 132/79/8
f 134/72/7 98/72/7 135/66/7
f 92/66/10 85/58/10 135/66/10
f 136/58/9 85/58/9 133/57/9
f 116/52/5 113/51/5 127/63/5
f 119/55/5 120/54/5 125/65/5
f 136/58/5 133/57/5 107/67/5
f 115/62/5 116/52/5 129/85/5
f 117/64/5 119/55/5 126/84/5
f 135/66/5 136/58/5 109/83/5
f 115/62/5 129/85/5 114/69/5
f 117/64/5 126/84/5 118/70/5
f 135/66/5 109/83/5 134/72/5
f 114/69/5 130/71/5 112/76/5
f 118/70/5 123/73/5 121/77/5
f 134/72/5 110/75/5 132/79/5
f 113/51/5 112/76/5 128/53/5
f 121/77/5 122/80/5 120/54/5
f 132/79/5 111/82/5 133/57/5
