# Blender v2.76 (sub 0) OBJ File: ''
# www.blender.org
o Default
v 0.069839 0.069839 0.191364
v 0.041427 0.082140 0.192793
v 0.044760 0.044760 0.197724
v 0.082140 0.041427 0.192793
v -0.000000 0.088211 0.193498
v -0.000000 0.048093 0.198610
v -0.000000 0.000000 0.199550
v 0.048093 0.000000 0.198610
v 0.088211 0.000000 0.193498
v -0.041427 0.082140 0.192793
v -0.044760 0.044760 0.197724
v -0.069839 0.069839 0.191364
v -0.082140 0.041427 0.192793
v -0.088211 0.000000 0.193498
v -0.048093 0.000000 0.198610
v -0.044760 -0.044760 0.197724
v -0.000000 -0.048093 0.198610
v -0.082140 -0.041427 0.192793
v -0.069839 -0.069838 0.191364
v -0.041427 -0.082140 0.192793
v -0.000000 -0.088211 0.193498
v 0.044760 -0.044760 0.197724
v 0.082140 -0.041427 0.192793
v 0.041427 -0.082140 0.192793
v 0.069839 -0.069838 0.191364
v -0.066823 0.066823 -0.243389
v -0.038052 0.074294 -0.256531
v -0.037623 0.037623 -0.278685
v -0.074295 0.038052 -0.256531
v -0.000000 0.078597 -0.259105
v -0.000000 0.039641 -0.283803
v -0.000000 -0.000000 -0.290443
v -0.039641 -0.000000 -0.283803
v -0.078597 -0.000000 -0.259105
v 0.038052 0.074294 -0.256531
v 0.037623 0.037623 -0.278685
v 0.066823 0.066823 -0.243389
v 0.074295 0.038052 -0.256531
v 0.078597 -0.000000 -0.259105
v 0.039641 -0.000000 -0.283803
v 0.037623 -0.037623 -0.278685
v -0.000000 -0.039641 -0.283803
v 0.074295 -0.038052 -0.256531
v 0.066823 -0.066823 -0.243389
v 0.038052 -0.074295 -0.256531
v -0.000000 -0.078597 -0.259105
v -0.037623 -0.037623 -0.278685
v -0.074295 -0.038052 -0.256531
v -0.038052 -0.074295 -0.256531
v -0.066823 -0.066823 -0.243389
v -0.082140 -0.082140 0.181594
v -0.044760 -0.104758 0.181981
v -0.090617 -0.090617 0.166808
v -0.049417 -0.115385 0.166905
v -0.000000 -0.123661 0.167002
v -0.000000 -0.112377 0.182368
v 0.044760 -0.104758 0.181981
v 0.049417 -0.115385 0.166905
v 0.090617 -0.090617 0.166808
v 0.082140 -0.082140 0.181594
v -0.082140 0.082140 0.181594
v -0.104758 0.044760 0.181981
v -0.090617 0.090617 0.166808
v -0.115385 0.049417 0.166905
v -0.123661 0.000000 0.167002
v -0.112377 0.000000 0.182368
v -0.104758 -0.044760 0.181981
v -0.115385 -0.049417 0.166905
v 0.104758 -0.044760 0.181981
v 0.115385 -0.049417 0.166905
v 0.123661 0.000000 0.167002
v 0.112377 0.000000 0.182368
v 0.104758 0.044760 0.181981
v 0.115385 0.049417 0.166905
v 0.090617 0.090617 0.166808
v 0.082140 0.082140 0.181594
v 0.044760 0.104758 0.181981
v 0.049417 0.115385 0.166905
v -0.000000 0.123661 0.167002
v -0.000000 0.112377 0.182368
v -0.044760 0.104758 0.181981
v -0.049417 0.115385 0.166905
v -0.000000 -0.128052 -0.178187
v -0.051428 -0.119653 -0.177928
v -0.047410 -0.109062 -0.210538
v -0.000000 -0.116182 -0.211574
v -0.094198 -0.094198 -0.177669
v -0.086529 -0.086529 -0.209503
v -0.000000 0.128052 -0.178187
v 0.051428 0.119653 -0.177928
v 0.047410 0.109062 -0.210538
v -0.000000 0.116182 -0.211574
v 0.094198 0.094198 -0.177669
v 0.086529 0.086528 -0.209503
v -0.128052 -0.000000 -0.178187
v -0.116182 -0.000000 -0.211574
v -0.109062 -0.047410 -0.210538
v -0.119653 -0.051428 -0.177928
v 0.128052 -0.000000 -0.178187
v 0.116182 -0.000000 -0.211574
v 0.109062 0.047410 -0.210538
v 0.119653 0.051428 -0.177928
v -0.047410 0.109062 -0.210538
v -0.051428 0.119653 -0.177928
v -0.086529 0.086528 -0.209503
v -0.094198 0.094198 -0.177669
v 0.119653 -0.051428 -0.177928
v 0.109062 -0.047410 -0.210538
v 0.094198 -0.094198 -0.177669
v 0.086529 -0.086529 -0.209503
v -0.119653 0.051428 -0.177928
v -0.109062 0.047410 -0.210538
v 0.047410 -0.109062 -0.210538
v 0.051428 -0.119653 -0.177928
v -0.116791 0.050054 0.148077
v -0.091765 0.091765 0.148077
v -0.125134 0.000000 0.148077
v 0.091765 -0.091765 0.148077
v 0.050053 -0.116791 0.148077
v -0.000000 -0.125134 0.148077
v -0.050053 -0.116791 0.148077
v -0.091765 -0.091765 0.148077
v 0.091765 0.091765 0.148077
v 0.116791 0.050054 0.148077
v 0.125134 0.000000 0.148077
v -0.116791 -0.050053 0.148077
v 0.050053 0.116791 0.148077
v -0.000000 0.125134 0.148077
v 0.116791 -0.050053 0.148077
v -0.050053 0.116791 0.148077
vt 1.000000 0.666667
vt 0.937500 0.666667
vt 0.937500 0.583333
vt 0.875000 0.666667
vt 0.876367 0.583333
vt 0.877179 0.500000
vt 1.000000 0.583333
vt 0.937500 0.500000
vt 0.812500 0.666667
vt 0.817969 0.583333
vt 0.750000 0.666667
vt 0.769141 0.583333
vt 0.773242 0.500000
vt 0.820703 0.500000
vt 0.817969 0.416667
vt 0.769141 0.416667
vt 0.750000 0.333333
vt 0.876367 0.416667
vt 0.812500 0.333333
vt 0.937500 0.416667
vt 1.000000 0.416667
vt 0.875000 0.333333
vt 0.937500 0.333333
vt 1.000000 0.333333
vt 0.436133 0.647656
vt 0.432031 0.576042
vt 0.485742 0.581510
vt 0.375000 0.642318
vt 0.375000 0.572396
vt 0.374995 0.500007
vt 0.429297 0.500000
vt 0.313867 0.647656
vt 0.317969 0.576042
vt 0.250000 0.666667
vt 0.264258 0.581510
vt 0.268262 0.500075
vt 0.320703 0.500000
vt 0.317969 0.423958
vt 0.264258 0.418490
vt 0.250000 0.333333
vt 0.313867 0.352344
vt 0.375000 0.427604
vt 0.432031 0.423958
vt 0.485742 0.418490
vt 0.374944 0.357683
vt 0.436133 0.352344
vt 0.500000 0.025000
vt 0.437500 0.025000
vt 0.437500 0.000000
vt 0.500000 0.050000
vt 0.437500 0.066406
vt 0.375000 0.066276
vt 0.375000 0.025000
vt 0.375000 0.000000
vt 0.312500 0.025000
vt 0.312500 0.066406
vt 0.250000 0.050000
vt 0.250000 0.025000
vt 0.312500 0.000000
vt 0.731250 0.666667
vt 0.736719 0.583333
vt 0.712500 0.666667
vt 0.701563 0.583333
vt 0.702472 0.500000
vt 0.739453 0.500000
vt 0.736719 0.416667
vt 0.701563 0.416667
vt 0.712500 0.333333
vt 0.731250 0.333333
vt 0.018750 0.333333
vt 0.018750 0.416667
vt 0.000000 0.416667
vt 0.037500 0.333333
vt 0.049805 0.416667
vt 0.049707 0.500000
vt 0.018750 0.500000
vt 0.000000 0.500000
vt 0.018750 0.583333
vt 0.049805 0.583333
vt 0.037500 0.666667
vt 0.018750 0.666667
vt 0.000000 0.583333
vt 0.250000 0.975000
vt 0.312500 0.975000
vt 0.312500 1.000000
vt 0.250000 0.950000
vt 0.312500 0.933594
vt 0.375000 0.933724
vt 0.375000 0.975000
vt 0.375000 1.000000
vt 0.437500 0.975000
vt 0.437500 0.933594
vt 0.500000 0.950000
vt 0.500000 0.975000
vt 0.437500 1.000000
vt 0.374995 0.224382
vt 0.437500 0.223177
vt 0.437500 0.289583
vt 0.500000 0.233333
vt 0.500000 0.283333
vt 0.500000 0.333333
vt 0.375000 0.292708
vt 0.375000 0.775618
vt 0.312500 0.776823
vt 0.312500 0.710417
vt 0.250000 0.766667
vt 0.250000 0.716667
vt 0.375000 0.707292
vt 0.581918 0.500000
vt 0.530469 0.500000
vt 0.532812 0.416667
vt 0.481737 0.500000
vt 0.582617 0.416667
vt 0.537500 0.333333
vt 0.168286 0.500007
vt 0.219531 0.500000
vt 0.217188 0.583333
vt 0.167383 0.583333
vt 0.212500 0.666667
vt 0.437500 0.710417
vt 0.500000 0.666667
vt 0.437500 0.776823
vt 0.500000 0.716667
vt 0.167383 0.416667
vt 0.217187 0.416667
vt 0.175000 0.333333
vt 0.212500 0.333333
vt 0.582617 0.583333
vt 0.532813 0.583333
vt 0.575000 0.666667
vt 0.537500 0.666667
vt 0.312500 0.289583
vt 0.312500 0.223177
vt 0.250000 0.283333
vt 0.644531 0.583333
vt 0.644922 0.500000
vt 0.250000 0.233333
vt 0.250000 0.141667
vt 0.312500 0.140625
vt 0.375000 0.140104
vt 0.437500 0.140625
vt 0.175000 0.666667
vt 0.106250 0.666667
vt 0.105469 0.583333
vt 0.105078 0.500000
vt 0.575000 0.333333
vt 0.643750 0.333333
vt 0.644531 0.416667
vt 0.312500 0.859375
vt 0.375000 0.859896
vt 0.105469 0.416667
vt 0.500000 0.766667
vt 0.500000 0.858333
vt 0.437500 0.859375
vt 1.000000 0.500000
vt 0.500000 0.000000
vt 0.250000 0.000000
vt 0.000000 0.333333
vt 0.000000 0.666667
vt 0.250000 1.000000
vt 0.500000 1.000000
vt 0.643750 0.666667
vt 0.500000 0.141667
vt 0.250000 0.858333
vt 0.106250 0.333333
vn 0.272000 0.267600 0.924300
vn 0.122500 0.282200 0.951500
vn 0.076500 0.080800 0.993800
vn -0.000200 0.283300 0.959000
vn 0.000800 0.076600 0.997100
vn -0.000000 0.000000 1.000000
vn 0.283100 0.123300 0.951100
vn 0.076500 0.000900 0.997100
vn -0.123700 0.285700 0.950300
vn -0.078300 0.075000 0.994100
vn -0.266200 0.268300 0.925800
vn -0.281000 0.119100 0.952300
vn -0.283300 -0.000200 0.959000
vn -0.076400 0.000900 0.997100
vn -0.077100 -0.074000 0.994300
vn -0.284600 -0.118700 0.951300
vn -0.265900 -0.267700 0.926100
vn -0.001200 -0.077100 0.997000
vn -0.111300 -0.282800 0.952700
vn 0.075000 -0.078300 0.994100
vn 0.283100 -0.127100 0.950600
vn 0.005500 -0.288200 0.957500
vn 0.120700 -0.285700 0.950700
vn 0.269900 -0.266500 0.925300
vn -0.292700 0.627400 -0.721600
vn -0.319300 0.319300 -0.892300
vn -0.622200 0.295400 -0.725000
vn 0.000300 0.668800 -0.743400
vn -0.000100 0.351200 -0.936300
vn -0.000000 -0.000000 -1.000000
vn -0.351200 0.000100 -0.936300
vn 0.293000 0.629200 -0.719900
vn 0.318600 0.333700 -0.887200
vn 0.532500 0.528600 -0.661100
vn 0.632600 0.287200 -0.719200
vn 0.669100 0.000100 -0.743200
vn 0.351900 0.000300 -0.936000
vn 0.314000 -0.341200 -0.886000
vn 0.620200 -0.300100 -0.724800
vn 0.529600 -0.529600 -0.662700
vn 0.284800 -0.634900 -0.718200
vn -0.000000 -0.352000 -0.936000
vn -0.333700 -0.318600 -0.887200
vn -0.632900 -0.282700 -0.720800
vn -0.004500 -0.672300 -0.740200
vn -0.297600 -0.618900 -0.726900
vn -0.337200 -0.331200 0.881200
vn -0.157200 -0.397400 0.904100
vn -0.551600 -0.550700 0.626400
vn -0.560100 -0.682900 0.469000
vn -0.324800 -0.872000 0.366300
vn -0.280200 -0.737300 0.614700
vn -0.009800 -0.938300 0.345600
vn 0.000600 -0.418100 0.908400
vn 0.161500 -0.410200 0.897600
vn 0.325900 -0.874800 0.358500
vn 0.283600 -0.746700 0.601600
vn 0.558700 -0.684000 0.468900
vn 0.549800 -0.552500 0.626500
vn 0.331300 -0.337200 0.881200
vn -0.331300 0.337200 0.881200
vn -0.397400 0.157200 0.904100
vn -0.550700 0.551600 0.626400
vn -0.682900 0.560100 0.469000
vn -0.872000 0.324800 0.366300
vn -0.737300 0.280200 0.614700
vn -0.938300 0.009800 0.345600
vn -0.418100 -0.000600 0.908400
vn -0.410200 -0.161500 0.897600
vn -0.874800 -0.325900 0.358500
vn -0.746700 -0.283600 0.601600
vn -0.684000 -0.558700 0.468900
vn -0.552500 -0.549800 0.626500
vn 0.397400 -0.157200 0.904100
vn 0.550700 -0.551600 0.626500
vn 0.682900 -0.560100 0.469000
vn 0.872000 -0.324800 0.366300
vn 0.737300 -0.280200 0.614700
vn 0.938300 -0.009800 0.345600
vn 0.418100 0.000600 0.908400
vn 0.293900 0.001100 0.955900
vn 0.410200 0.161500 0.897600
vn 0.874800 0.325900 0.358500
vn 0.746700 0.283600 0.601600
vn 0.684000 0.558700 0.468900
vn 0.552500 0.549800 0.626500
vn 0.337200 0.331200 0.881200
vn 0.157200 0.397400 0.904100
vn 0.551600 0.550700 0.626500
vn 0.560100 0.682900 0.469000
vn 0.324800 0.872000 0.366300
vn 0.280200 0.737300 0.614700
vn 0.009800 0.938300 0.345600
vn -0.000600 0.418100 0.908400
vn -0.161500 0.410200 0.897600
vn -0.325900 0.874800 0.358500
vn -0.283600 0.746700 0.601600
vn -0.558700 0.684000 0.468900
vn -0.549800 0.552500 0.626500
vn 0.000000 -0.986100 -0.166100
vn -0.338300 -0.926800 -0.163200
vn -0.296200 -0.825300 -0.480900
vn -0.697800 -0.697800 -0.161300
vn -0.612600 -0.624700 -0.484300
vn -0.535300 -0.531300 -0.656700
vn 0.008300 -0.877900 -0.478900
vn -0.000000 0.986100 -0.166100
vn 0.338300 0.926800 -0.163200
vn 0.296200 0.825300 -0.480900
vn 0.697800 0.697800 -0.161300
vn 0.612600 0.624700 -0.484300
vn -0.008300 0.877900 -0.478900
vn -0.986100 0.000000 -0.166100
vn -0.873700 0.000000 -0.486500
vn -0.822800 -0.308700 -0.477200
vn -0.675900 -0.000000 -0.737000
vn -0.925900 -0.343500 -0.157200
vn 0.986100 0.000000 -0.166100
vn 0.873700 -0.000000 -0.486500
vn 0.822800 0.308700 -0.477200
vn 0.925900 0.343500 -0.157200
vn -0.308700 0.822800 -0.477200
vn -0.532200 0.531700 -0.658800
vn -0.343500 0.925900 -0.157200
vn -0.612600 0.624700 -0.484300
vn 0.926800 -0.338300 -0.163200
vn 0.825300 -0.296200 -0.480900
vn 0.697800 -0.697800 -0.161300
vn 0.624700 -0.612600 -0.484300
vn -0.926800 0.338300 -0.163200
vn -0.825300 0.296200 -0.480900
vn -0.703900 0.693400 -0.154300
vn 0.308700 -0.822800 -0.477200
vn 0.343500 -0.925900 -0.157200
vn -0.937000 0.346200 0.047200
vn -0.999000 0.000900 0.043800
vn -0.723100 0.631400 0.280200
vn 0.706200 -0.706200 0.049300
vn 0.344100 -0.937800 0.046400
vn 0.631800 -0.724700 0.274900
vn -0.000300 -0.999000 0.044500
vn -0.346200 -0.937000 0.047200
vn -0.631400 -0.723100 0.280200
vn 0.706200 0.706200 0.049300
vn 0.937800 0.344100 0.046400
vn 0.724700 0.631800 0.274900
vn 0.999000 -0.000300 0.044500
vn -0.706200 -0.706200 0.049300
vn -0.937800 -0.344100 0.046400
vn -0.724700 -0.631800 0.274900
vn 0.346200 0.937000 0.047200
vn 0.000900 0.999000 0.043800
vn 0.631400 0.723100 0.280200
vn 0.937000 -0.346200 0.047200
vn 0.723100 -0.631400 0.280200
vn -0.706200 0.706200 0.049300
vn -0.344100 0.937800 0.046400
vn -0.631800 0.724700 0.274900
vn 0.000700 -0.805800 0.592200
vn -0.805700 -0.000800 0.592300
vn 0.805700 0.000800 0.592300
vn -0.000700 0.805800 0.592200
s 1
f 1/1/1 2/2/2 3/3/3
f 2/2/2 5/4/4 6/5/5
f 3/3/3 6/5/5 7/6/6
f 4/7/7 3/3/3 8/8/8
f 10/9/9 11/10/10 6/5/5
f 12/11/11 13/12/12 11/10/10
f 13/12/12 14/13/13 15/14/14
f 11/10/10 15/14/14 7/6/6
f 7/6/6 15/14/14 16/15/15
f 15/14/14 14/13/13 18/16/16
f 16/15/15 18/16/16 19/17/17
f 17/18/18 16/15/15 20/19/19
f 8/8/8 22/20/20 23/21/21
f 7/6/6 17/18/18 22/20/20
f 17/18/18 21/22/22 24/23/23
f 22/20/20 24/23/23 25/24/24
f 27/25/25 28/26/26 29/27/27
f 27/25/25 30/28/28 31/29/29
f 28/26/26 31/29/29 32/30/30
f 29/27/27 28/26/26 33/31/31
f 35/32/32 36/33/33 31/29/29
f 35/32/32 37/34/34 38/35/35
f 38/35/35 39/36/36 40/37/37
f 36/33/33 40/37/37 32/30/30
f 32/30/30 40/37/37 41/38/38
f 40/37/37 39/36/36 43/39/39
f 43/39/39 44/40/40 45/41/41
f 42/42/42 41/38/38 45/41/41
f 33/31/31 47/43/43 48/44/44
f 32/30/30 42/42/42 47/43/43
f 42/42/42 46/45/45 49/46/46
f 48/44/44 47/43/43 49/46/46
f 51/47/47 52/48/48 20/49/19
f 51/47/49 53/50/50 54/51/51
f 52/48/52 54/51/51 55/52/53
f 52/48/48 56/53/54 21/54/22
f 21/54/22 56/53/54 57/55/55
f 55/52/53 58/56/56 57/55/57
f 58/56/56 59/57/58 60/58/59
f 24/59/23 57/55/55 60/58/60
f 61/60/61 62/61/62 13/12/12
f 61/60/63 63/62/64 64/63/65
f 62/61/66 64/63/65 65/64/67
f 62/61/62 66/65/68 14/13/13
f 14/13/13 66/65/68 67/66/69
f 65/64/67 68/67/70 67/66/71
f 68/67/70 53/68/72 51/69/73
f 18/16/16 67/66/69 51/69/47
f 60/70/60 69/71/74 23/72/21
f 60/70/75 59/73/76 70/74/77
f 69/71/78 70/74/77 71/75/79
f 69/71/74 72/76/80 9/77/81
f 9/77/81 72/76/80 73/78/82
f 71/75/79 74/79/83 73/78/84
f 74/79/83 75/80/85 76/81/86
f 4/82/7 73/78/82 76/81/87
f 76/83/87 77/84/88 2/85/2
f 76/83/89 75/86/90 78/87/91
f 77/84/92 78/87/91 79/88/93
f 77/84/88 80/89/94 5/90/4
f 5/90/4 80/89/94 81/91/95
f 79/88/93 82/92/96 81/91/97
f 82/92/96 63/93/98 61/94/99
f 10/95/9 81/91/95 61/94/61
f 83/96/100 84/97/101 85/98/102
f 84/97/101 87/99/103 88/100/104
f 85/98/102 88/100/104 50/101/105
f 86/102/106 85/98/102 49/46/46
f 89/103/107 90/104/108 91/105/109
f 90/104/108 93/106/110 94/107/111
f 91/105/109 94/107/111 37/34/34
f 92/108/112 91/105/109 35/32/32
f 95/109/113 96/110/114 97/111/115
f 96/110/114 34/112/116 48/44/44
f 97/111/115 48/44/44 50/101/105
f 98/113/117 97/111/115 88/114/104
f 99/115/118 100/116/119 101/117/120
f 100/116/119 39/36/36 38/35/35
f 101/117/120 38/35/35 37/34/34
f 102/118/121 101/117/120 94/119/111
f 89/103/107 92/108/112 103/120/122
f 92/108/112 30/28/28 27/25/25
f 103/120/122 27/25/25 26/121/123
f 104/122/124 103/120/122 105/123/125
f 99/115/118 107/124/126 108/125/127
f 107/124/126 109/126/128 110/127/129
f 108/125/127 110/127/129 44/40/40
f 100/116/119 108/125/127 43/39/39
f 95/109/113 111/128/130 112/129/131
f 111/128/130 106/130/132 105/131/125
f 112/129/131 105/131/125 26/121/123
f 96/110/114 112/129/131 29/27/27
f 83/96/100 86/102/106 113/132/133
f 86/102/106 46/45/45 45/41/41
f 113/132/133 45/41/41 44/40/40
f 114/133/134 113/132/133 110/134/129
f 106/130/132 111/128/130 115/135/135
f 111/128/130 95/109/113 117/136/136
f 117/136/136 65/64/67 64/63/65
f 115/135/135 64/63/65 63/62/137
f 109/137/128 118/138/138 119/139/139
f 59/57/140 58/56/56 119/139/139
f 58/56/56 55/52/53 120/140/141
f 114/133/134 119/139/139 120/140/141
f 87/99/103 84/97/101 121/141/142
f 84/97/101 83/96/100 120/140/141
f 120/140/141 55/52/53 54/51/51
f 121/141/142 54/51/51 53/50/143
f 93/142/110 123/143/144 124/144/145
f 75/80/146 74/79/83 124/144/145
f 74/79/83 71/75/79 125/145/147
f 102/118/121 124/144/145 125/145/147
f 87/146/103 122/147/148 126/148/149
f 53/68/150 68/67/70 126/148/149
f 68/67/70 65/64/67 117/136/136
f 98/113/117 126/148/149 117/136/136
f 93/106/110 90/104/108 127/149/151
f 90/104/108 89/103/107 128/150/152
f 128/150/152 79/88/93 78/87/91
f 127/149/151 78/87/91 75/86/153
f 109/126/128 107/124/126 129/151/154
f 107/124/126 99/115/118 125/145/147
f 125/145/147 71/75/79 70/74/77
f 129/151/154 70/74/77 59/73/155
f 106/152/132 116/153/156 130/154/157
f 63/93/158 82/92/96 130/154/157
f 82/92/96 79/88/93 128/150/152
f 104/122/124 130/154/157 128/150/152
f 4/7/7 1/1/1 3/3/3
f 3/3/3 2/2/2 6/5/5
f 8/8/8 3/3/3 7/6/6
f 9/155/81 4/7/7 8/8/8
f 5/4/4 10/9/9 6/5/5
f 10/9/9 12/11/11 11/10/10
f 11/10/10 13/12/12 15/14/14
f 6/5/5 11/10/10 7/6/6
f 17/18/18 7/6/6 16/15/15
f 16/15/15 15/14/14 18/16/16
f 20/19/19 16/15/15 19/17/17
f 21/22/22 17/18/18 20/19/19
f 9/155/81 8/8/8 23/21/21
f 8/8/8 7/6/6 22/20/20
f 22/20/20 17/18/18 24/23/23
f 23/21/21 22/20/20 25/24/24
f 26/121/123 27/25/25 29/27/27
f 28/26/26 27/25/25 31/29/29
f 33/31/31 28/26/26 32/30/30
f 34/112/116 29/27/27 33/31/31
f 30/28/28 35/32/32 31/29/29
f 36/33/33 35/32/32 38/35/35
f 36/33/33 38/35/35 40/37/37
f 31/29/29 36/33/33 32/30/30
f 42/42/42 32/30/30 41/38/38
f 41/38/38 40/37/37 43/39/39
f 41/38/38 43/39/39 45/41/41
f 46/45/45 42/42/42 45/41/41
f 34/112/116 33/31/31 48/44/44
f 33/31/31 32/30/30 47/43/43
f 47/43/43 42/42/42 49/46/46
f 50/101/105 48/44/44 49/46/46
f 19/156/17 51/47/47 20/49/19
f 52/48/52 51/47/49 54/51/51
f 56/53/159 52/48/52 55/52/53
f 20/49/19 52/48/48 21/54/22
f 24/59/23 21/54/22 57/55/55
f 56/53/159 55/52/53 57/55/57
f 57/55/57 58/56/56 60/58/59
f 25/157/24 24/59/23 60/58/60
f 12/11/11 61/60/61 13/12/12
f 62/61/66 61/60/63 64/63/65
f 66/65/160 62/61/66 65/64/67
f 13/12/12 62/61/62 14/13/13
f 18/16/16 14/13/13 67/66/69
f 66/65/160 65/64/67 67/66/71
f 67/66/71 68/67/70 51/69/73
f 19/17/17 18/16/16 51/69/47
f 25/158/24 60/70/60 23/72/21
f 69/71/78 60/70/75 70/74/77
f 72/76/161 69/71/78 71/75/79
f 23/72/21 69/71/74 9/77/81
f 4/82/7 9/77/81 73/78/82
f 72/76/161 71/75/79 73/78/84
f 73/78/84 74/79/83 76/81/86
f 1/159/1 4/82/7 76/81/87
f 1/160/1 76/83/87 2/85/2
f 77/84/92 76/83/89 78/87/91
f 80/89/162 77/84/92 79/88/93
f 2/85/2 77/84/88 5/90/4
f 10/95/9 5/90/4 81/91/95
f 80/89/162 79/88/93 81/91/97
f 81/91/97 82/92/96 61/94/99
f 12/161/11 10/95/9 61/94/61
f 86/102/106 83/96/100 85/98/102
f 85/98/102 84/97/101 88/100/104
f 49/46/46 85/98/102 50/101/105
f 46/45/45 86/102/106 49/46/46
f 92/108/112 89/103/107 91/105/109
f 91/105/109 90/104/108 94/107/111
f 35/32/32 91/105/109 37/34/34
f 30/28/28 92/108/112 35/32/32
f 98/113/117 95/109/113 97/111/115
f 97/111/115 96/110/114 48/44/44
f 88/114/104 97/111/115 50/101/105
f 87/146/103 98/113/117 88/114/104
f 102/118/121 99/115/118 101/117/120
f 101/117/120 100/116/119 38/35/35
f 94/119/111 101/117/120 37/34/34
f 93/142/110 102/118/121 94/119/111
f 104/122/124 89/103/107 103/120/122
f 103/120/122 92/108/112 27/25/25
f 105/123/125 103/120/122 26/121/123
f 106/152/132 104/122/124 105/123/125
f 100/116/119 99/115/118 108/125/127
f 108/125/127 107/124/126 110/127/129
f 43/39/39 108/125/127 44/40/40
f 39/36/36 100/116/119 43/39/39
f 96/110/114 95/109/113 112/129/131
f 112/129/131 111/128/130 105/131/125
f 29/27/27 112/129/131 26/121/123
f 34/112/116 96/110/114 29/27/27
f 114/133/134 83/96/100 113/132/133
f 113/132/133 86/102/106 45/41/41
f 110/134/129 113/132/133 44/40/40
f 109/137/128 114/133/134 110/134/129
f 116/162/156 106/130/132 115/135/135
f 115/135/135 111/128/130 117/136/136
f 115/135/135 117/136/136 64/63/65
f 116/162/156 115/135/135 63/62/137
f 114/133/134 109/137/128 119/139/139
f 118/138/138 59/57/140 119/139/139
f 119/139/139 58/56/56 120/140/141
f 83/96/100 114/133/134 120/140/141
f 122/163/148 87/99/103 121/141/142
f 121/141/142 84/97/101 120/140/141
f 121/141/142 120/140/141 54/51/51
f 122/163/148 121/141/142 53/50/143
f 102/118/121 93/142/110 124/144/145
f 123/143/144 75/80/146 124/144/145
f 124/144/145 74/79/83 125/145/147
f 99/115/118 102/118/121 125/145/147
f 98/113/117 87/146/103 126/148/149
f 122/147/148 53/68/150 126/148/149
f 126/148/149 68/67/70 117/136/136
f 95/109/113 98/113/117 117/136/136
f 123/164/144 93/106/110 127/149/151
f 127/149/151 90/104/108 128/150/152
f 127/149/151 128/150/152 78/87/91
f 123/164/144 127/149/151 75/86/153
f 118/165/138 109/126/128 129/151/154
f 129/151/154 107/124/126 125/145/147
f 129/151/154 125/145/147 70/74/77
f 118/165/138 129/151/154 59/73/155
f 104/122/124 106/152/132 130/154/157
f 116/153/156 63/93/158 130/154/157
f 130/154/157 82/92/96 128/150/152
f 89/103/107 104/122/124 128/150/152
