# Blender v2.76 (sub 0) OBJ File: ''
# www.blender.org
o Default
v 0.840508 0.134513 3.003911
v -0.000000 0.286013 3.133355
v -0.000000 -0.298349 3.299776
v 0.913421 -0.298349 3.133355
v -0.840508 0.134513 3.003911
v -0.913421 -0.298349 3.133355
v -0.840508 -0.731211 3.003911
v -0.000000 -0.882712 3.133355
v 0.840508 -0.731211 3.003911
v -0.840508 0.134512 -3.108259
v -0.000000 0.286012 -3.243574
v -0.000000 -0.298351 -3.417559
v -1.134685 -0.298351 -3.243574
v 0.840508 0.134512 -3.108259
v 1.134685 -0.298351 -3.243574
v 0.840508 -0.731212 -3.108259
v -0.000000 -0.882713 -3.243574
v -0.840508 -0.731212 -3.108259
v -1.134685 -0.882712 2.634094
v -0.000000 -1.077500 2.634094
v -1.134685 -0.882713 1.635571
v -0.000000 -1.077500 1.635571
v 1.134685 -0.882713 1.635571
v 1.134685 -0.882712 2.634094
v -1.134685 -0.882713 -0.028633
v -0.000000 -1.077500 -0.028633
v -1.134685 -0.882713 -1.700402
v -0.000000 -1.077501 -1.700402
v 1.134685 -0.882713 -1.700402
v 1.134685 -0.882713 -0.028633
v -1.134685 -0.882713 -2.721619
v -0.000000 -1.077501 -2.721619
v 1.134685 -0.882713 -2.721619
v -1.038237 0.526188 2.528190
v -1.329624 -0.298350 2.634094
v -1.058909 0.751310 2.103364
v -1.512913 -0.298350 1.635571
v -1.476035 0.454324 -0.028634
v -1.512913 -0.298350 -0.028633
v -1.253146 0.463855 -1.272853
v -1.512913 -0.298350 -1.700403
v -1.134685 0.286012 -2.721619
v -1.512913 -0.298350 -2.721619
v 1.329624 -0.298350 2.634094
v 1.512913 -0.298350 1.635571
v 1.058909 0.751310 2.103364
v 1.038237 0.526188 2.528190
v 1.512913 -0.298350 -0.028633
v 1.512913 -0.298350 -1.700403
v 1.253146 0.463855 -1.272853
v 1.476035 0.454324 -0.028634
v 1.512913 -0.298350 -2.721619
v 1.134685 0.286012 -2.721619
v -0.000000 0.768254 2.755127
v -0.000000 1.131353 2.270994
v -0.000000 0.480800 -2.721619
v -0.000000 0.649112 -1.655015
v 0.725778 1.528072 1.080837
v 0.950300 1.658981 -0.028634
v -0.000000 1.827293 -0.028634
v -0.000000 1.658982 1.469150
v 0.725778 1.528072 -1.138104
v -0.000000 1.658981 -1.254094
v -0.725778 1.528072 -1.138104
v -0.950300 1.658981 -0.028634
v -0.725778 1.528072 1.080837
vt 1.000000 0.666667
vt 0.875000 0.666667
vt 0.875000 0.500000
vt 0.750000 0.666667
vt 0.775000 0.500000
vt 0.750000 0.333333
vt 0.875000 0.333333
vt 1.000000 0.333333
vt 0.500000 0.666667
vt 0.375000 0.633333
vt 0.375000 0.500000
vt 0.250000 0.666667
vt 0.275000 0.500000
vt 0.250000 0.333333
vt 0.375000 0.366667
vt 0.500000 0.333333
vt 0.500000 0.000000
vt 0.500000 0.033333
vt 0.375000 0.033333
vt 0.500000 0.066667
vt 0.375000 0.083333
vt 0.250000 0.066667
vt 0.250000 0.033333
vt 0.250000 0.000000
vt 0.500000 0.166667
vt 0.375000 0.166667
vt 0.500000 0.266667
vt 0.375000 0.250000
vt 0.250000 0.266667
vt 0.250000 0.166667
vt 0.500000 0.300000
vt 0.375000 0.300000
vt 0.250000 0.300000
vt 0.725000 0.666667
vt 0.725000 0.500000
vt 0.700000 0.666667
vt 0.687500 0.500000
vt 0.700000 0.333333
vt 0.725000 0.333333
vt 0.625000 0.666667
vt 0.625000 0.500000
vt 0.550000 0.666667
vt 0.562500 0.500000
vt 0.550000 0.333333
vt 0.625000 0.333333
vt 0.525000 0.666667
vt 0.525000 0.500000
vt 0.475000 0.500000
vt 0.525000 0.333333
vt 0.000000 0.333333
vt 0.025000 0.333333
vt 0.025000 0.500000
vt 0.050000 0.333333
vt 0.062500 0.500000
vt 0.050000 0.666667
vt 0.025000 0.666667
vt 0.000000 0.666667
vt 0.125000 0.333333
vt 0.125000 0.500000
vt 0.200000 0.333333
vt 0.187500 0.500000
vt 0.200000 0.666667
vt 0.125000 0.666667
vt 0.225000 0.333333
vt 0.225000 0.500000
vt 0.225000 0.666667
vt 0.250000 1.000000
vt 0.250000 0.966667
vt 0.375000 0.966667
vt 0.250000 0.933333
vt 0.375000 0.941667
vt 0.500000 0.933333
vt 0.500000 0.966667
vt 0.500000 1.000000
vt 0.250000 0.700000
vt 0.375000 0.700000
vt 0.375000 0.725000
vt 0.500000 0.700000
vt 0.294496 0.882510
vt 0.281250 0.833333
vt 0.375000 0.833333
vt 0.300626 0.774246
vt 0.375000 0.758333
vt 0.435185 0.770370
vt 0.468750 0.833333
vt 0.444444 0.888889
vt 0.500000 0.833333
vt 0.375000 0.908333
vt 0.250000 0.833333
vt 1.000000 0.500000
vt 0.375000 0.000000
vt 0.000000 0.500000
vt 0.375000 1.000000
vt 0.250000 0.733333
vt 0.500000 0.733333
vn 0.412300 0.475200 0.777300
vn 0.005400 0.451500 0.892300
vn 0.064700 0.089900 0.993800
vn -0.209200 0.451100 0.867600
vn -0.179000 0.025700 0.983500
vn -0.001100 -0.006000 1.000000
vn -0.071200 -0.102500 0.992200
vn -0.385900 -0.136600 0.912400
vn -0.475300 -0.312300 0.822500
vn 0.002900 0.006900 1.000000
vn 0.011300 -0.276500 0.961000
vn 0.438800 -0.332500 0.834800
vn -0.379200 0.463500 -0.800900
vn -0.044500 0.310300 -0.949600
vn -0.018300 0.342600 -0.939300
vn 0.189600 0.299900 -0.934900
vn 0.154400 0.060600 -0.986100
vn 0.055500 0.128600 -0.990100
vn 0.082600 -0.113700 -0.990100
vn 0.326000 -0.209300 -0.921900
vn 0.401700 -0.385200 -0.830800
vn -0.007100 -0.317400 -0.948300
vn -0.088200 -0.501100 -0.860900
vn -0.140700 -0.687400 -0.712500
vn -0.212200 -0.809800 0.547000
vn -0.193800 -0.936200 0.293200
vn -0.017100 -0.978700 0.204500
vn -0.169200 -0.985600 0.000000
vn 0.000000 -1.000000 0.000000
vn 0.169200 -0.985600 0.000000
vn 0.184500 -0.961300 0.204500
vn 0.203100 -0.901400 0.382500
vn -0.151500 -0.954000 -0.258500
vn 0.002200 -0.980700 -0.195500
vn -0.136900 -0.645000 -0.751800
vn -0.089400 -0.823500 -0.560300
vn 0.045600 -0.935700 -0.349800
vn 0.143000 -0.917600 -0.370900
vn 0.153800 -0.967900 -0.199000
vn -0.527000 0.474000 0.705400
vn -0.600700 0.560600 0.570000
vn -0.856400 0.120900 0.501900
vn -0.598700 0.542800 0.589100
vn -0.888100 0.428800 0.165500
vn -0.966400 0.163300 0.198400
vn -0.935800 -0.052700 0.348600
vn -0.960500 -0.178700 0.213500
vn -0.882400 -0.458500 0.105100
vn -0.869800 -0.111700 0.480700
vn -0.852100 -0.286800 0.437800
vn -0.476900 -0.306400 0.823800
vn -0.958800 0.277900 -0.059400
vn -0.992800 0.003100 -0.119600
vn -0.939600 0.312800 -0.139200
vn -0.985800 -0.154200 -0.066200
vn -0.963100 -0.265100 -0.045900
vn -0.980200 -0.180200 -0.081500
vn -0.839500 -0.543400 0.000000
vn -0.929900 -0.362700 -0.061400
vn -0.897400 -0.432600 0.086800
vn -0.805400 0.439500 -0.397700
vn -0.820800 0.458300 -0.340900
vn -0.428100 0.453300 -0.781800
vn -0.712800 -0.467300 -0.523100
vn -0.616200 -0.524600 -0.587400
vn -0.803600 -0.528000 -0.274800
vn -0.831200 -0.498600 -0.246100
vn 0.440300 -0.326700 0.836300
vn 0.666700 -0.278500 0.691300
vn 0.740300 -0.001200 0.672300
vn 0.895100 -0.445900 0.008500
vn 0.874200 -0.484400 0.034600
vn 0.960500 -0.276900 -0.026100
vn 0.912100 0.398500 0.096400
vn 0.889200 0.446600 0.100000
vn 0.851100 0.329000 0.409200
vn 0.842500 0.121600 0.524900
vn 0.688400 0.507000 0.518700
vn 0.411800 0.465000 0.783700
vn 0.839500 -0.543400 0.000000
vn 0.932400 -0.361400 -0.000000
vn 0.967600 -0.250000 -0.034500
vn 0.996500 -0.055500 0.063200
vn 0.948500 0.316300 -0.020000
vn 0.994800 0.032900 -0.096200
vn 0.955600 0.290600 -0.048400
vn 0.627400 -0.421900 -0.654500
vn 0.266800 -0.383800 -0.884000
vn 0.411200 -0.368400 -0.833800
vn 0.712800 0.467300 -0.523100
vn 0.616200 0.524600 -0.587400
vn 0.861200 0.434300 -0.264000
vn 0.986300 0.164400 -0.010000
vn 0.869200 0.448800 -0.207500
vn 0.478800 0.672700 0.564200
vn -0.000700 0.735100 0.678000
vn 0.281800 0.791800 0.541800
vn 0.339700 0.835800 0.431400
vn -0.001900 0.840400 0.541900
vn -0.344600 0.800700 0.490100
vn -0.619600 0.563900 0.546000
vn -0.429200 0.425800 0.796500
vn 0.156800 0.933200 -0.323400
vn -0.003500 0.962000 -0.272900
vn -0.002600 0.989100 -0.147000
vn 0.133800 0.864900 -0.483700
vn -0.004200 0.937500 -0.348000
vn -0.143000 0.917600 -0.370900
vn -0.162100 0.948000 -0.273900
vn 0.325700 0.887100 0.326900
vn 0.198300 0.980000 0.014300
vn 0.007100 1.000000 -0.000400
vn 0.175700 0.973300 -0.147600
vn -0.000200 0.990800 -0.135300
vn -0.176000 0.975500 -0.131800
vn -0.183500 0.983000 -0.006000
vn -0.313800 0.900800 0.300100
vn -0.900500 0.434800 -0.007300
vn -0.877700 0.453600 -0.154500
vn -0.858500 0.504400 0.092400
vn 0.321100 0.886700 0.332600
vn 0.347800 0.871200 0.346500
vn 0.877700 0.453600 -0.154500
vn 0.900500 0.434800 -0.007300
vn 0.858500 0.504400 0.092400
vn 0.000000 0.289700 -0.957100
vn 0.000000 0.337800 -0.941200
vn 0.305800 0.282200 -0.909300
vn -0.336200 0.885500 0.320600
vn -0.309100 0.900500 0.305900
vn -0.305800 0.282200 -0.909300
vn 0.390300 0.138100 0.910300
vn -0.010400 0.476800 0.879000
vn -0.013400 -0.276500 0.960900
vn 0.366100 -0.137700 0.920300
vn 0.028200 0.310600 -0.950100
vn 0.038700 -0.285800 -0.957500
vn -0.109900 -0.427700 -0.897200
vn -0.005100 -0.920800 0.390100
vn -0.778100 -0.027500 0.627500
vn -0.934000 0.139400 0.328900
vn -0.927500 -0.215400 0.305500
vn -0.635600 -0.142000 0.758800
vn 0.598100 -0.155400 0.786200
vn 0.977800 -0.194900 -0.077100
vn 0.853100 0.352800 0.384400
vn 0.572600 0.087500 0.815200
vn 0.704400 -0.368400 -0.606700
vn 0.970900 0.218300 -0.098200
vn 0.192200 0.973100 -0.126800
vn -0.197300 0.969500 -0.145300
vn 0.168100 0.954800 0.245200
vn -0.149600 0.957700 0.245900
vn 0.356700 0.236900 -0.903700
vn -0.356700 0.236900 -0.903700
s 1
f 1/1/1 2/2/2 3/3/3
f 5/4/4 6/5/5 3/3/6
f 3/3/7 6/5/8 7/6/9
f 3/3/10 8/7/11 9/8/12
f 10/9/13 11/10/14 12/11/15
f 14/12/16 15/13/17 12/11/18
f 12/11/19 15/13/20 16/14/21
f 12/11/22 17/15/23 18/16/24
f 7/17/25 19/18/26 20/19/27
f 21/20/28 22/21/29 20/19/27
f 22/21/29 23/22/30 24/23/31
f 20/19/27 24/23/31 9/24/32
f 25/25/28 26/26/29 22/21/29
f 27/27/28 28/28/29 26/26/29
f 28/28/29 29/29/30 30/30/30
f 22/21/29 26/26/29 30/30/30
f 31/31/33 32/32/34 28/28/29
f 18/16/35 17/15/36 32/32/34
f 32/32/34 17/15/37 16/14/38
f 32/32/34 33/33/39 29/29/30
f 5/4/40 34/34/41 35/35/42
f 34/34/43 36/36/44 37/37/45
f 35/35/46 37/37/47 21/38/48
f 35/35/49 19/39/50 7/6/51
f 38/40/52 39/41/53 37/37/45
f 40/42/54 41/43/55 39/41/56
f 41/43/57 27/44/58 25/45/58
f 39/41/59 25/45/58 21/38/60
f 42/46/61 43/47/62 41/43/55
f 42/46/61 10/9/13 13/48/63
f 13/48/64 18/16/65 31/49/66
f 41/43/57 43/47/67 31/49/66
f 9/50/68 24/51/69 44/52/70
f 23/53/71 45/54/72 44/52/73
f 45/54/74 46/55/75 47/56/76
f 44/52/77 47/56/78 1/57/79
f 30/58/80 48/59/81 45/54/72
f 29/60/80 49/61/81 48/59/81
f 48/59/82 49/61/83 50/62/84
f 45/54/74 48/59/85 51/63/86
f 33/64/80 52/65/80 49/61/81
f 33/64/87 16/14/88 15/13/89
f 15/13/90 14/12/91 53/66/92
f 49/61/93 52/65/94 53/66/92
f 1/67/1 47/68/95 54/69/96
f 47/68/97 46/70/98 55/71/99
f 55/71/99 36/72/100 34/73/101
f 54/69/96 34/73/101 5/74/102
f 53/75/103 56/76/104 57/77/105
f 14/12/106 11/10/107 56/76/104
f 56/76/104 11/10/107 10/9/108
f 57/77/105 56/76/104 42/78/109
f 58/79/110 59/80/111 60/81/112
f 62/82/113 63/83/114 60/81/112
f 60/81/112 63/83/114 64/84/115
f 60/81/112 65/85/116 66/86/117
f 38/87/52 65/85/118 64/84/119
f 66/86/120 65/85/118 38/87/52
f 58/79/121 61/88/122 55/71/99
f 62/82/123 59/80/124 51/89/86
f 51/89/86 59/80/124 58/79/125
f 57/77/126 63/83/127 62/82/128
f 55/71/99 61/88/129 66/86/130
f 64/84/131 63/83/127 57/77/126
f 4/90/132 1/1/1 3/3/3
f 2/2/133 5/4/4 3/3/6
f 8/7/134 3/3/7 7/6/9
f 4/90/135 3/3/10 9/8/12
f 13/48/63 10/9/13 12/11/15
f 11/10/136 14/12/16 12/11/18
f 17/15/137 12/11/19 16/14/21
f 13/48/138 12/11/22 18/16/24
f 8/91/139 7/17/25 20/19/27
f 19/18/26 21/20/28 20/19/27
f 20/19/27 22/21/29 24/23/31
f 8/91/139 20/19/27 9/24/32
f 21/20/28 25/25/28 22/21/29
f 25/25/28 27/27/28 26/26/29
f 26/26/29 28/28/29 30/30/30
f 23/22/30 22/21/29 30/30/30
f 27/27/28 31/31/33 28/28/29
f 31/31/33 18/16/35 32/32/34
f 33/33/39 32/32/34 16/14/38
f 28/28/29 32/32/34 29/29/30
f 6/5/140 5/4/40 35/35/42
f 35/35/141 34/34/43 37/37/45
f 19/39/142 35/35/46 21/38/48
f 6/5/143 35/35/49 7/6/51
f 36/36/44 38/40/52 37/37/45
f 38/40/52 40/42/54 39/41/56
f 39/41/59 41/43/57 25/45/58
f 37/37/60 39/41/59 21/38/60
f 40/42/54 42/46/61 41/43/55
f 43/47/62 42/46/61 13/48/63
f 43/47/67 13/48/64 31/49/66
f 27/44/58 41/43/57 31/49/66
f 4/92/144 9/50/68 44/52/70
f 24/51/145 23/53/71 44/52/73
f 44/52/146 45/54/74 47/56/76
f 4/92/147 44/52/77 1/57/79
f 23/53/71 30/58/80 45/54/72
f 30/58/80 29/60/80 48/59/81
f 51/63/86 48/59/82 50/62/84
f 46/55/75 45/54/74 51/63/86
f 29/60/80 33/64/80 49/61/81
f 52/65/148 33/64/87 15/13/89
f 52/65/94 15/13/90 53/66/92
f 50/62/149 49/61/93 53/66/92
f 2/93/2 1/67/1 54/69/96
f 54/69/96 47/68/97 55/71/99
f 54/69/96 55/71/99 34/73/101
f 2/93/2 54/69/96 5/74/102
f 50/94/150 53/75/103 57/77/105
f 53/75/103 14/12/106 56/76/104
f 42/78/109 56/76/104 10/9/108
f 40/95/151 57/77/105 42/78/109
f 61/88/152 58/79/110 60/81/112
f 59/80/111 62/82/113 60/81/112
f 65/85/116 60/81/112 64/84/115
f 61/88/153 60/81/112 66/86/117
f 40/95/54 38/87/52 64/84/119
f 36/72/44 66/86/120 38/87/52
f 46/70/98 58/79/121 55/71/99
f 50/94/84 62/82/123 51/89/86
f 46/70/75 51/89/86 58/79/125
f 50/94/154 57/77/126 62/82/128
f 36/72/100 55/71/99 66/86/130
f 40/95/155 64/84/131 57/77/126
